<svg width="855" height="787" viewBox="0 0 855 787" fill="none" xmlns="http://www.w3.org/2000/svg">
<path opacity="0.18" d="M220.582 635.932C205.248 635.932 187.597 637.039 178.392 649.293L238.335 663.515C241.943 664.355 245.879 665.42 248.052 668.433C251.721 673.535 248.277 680.728 249.753 686.876C252.295 697.409 266.502 698.843 277.306 698.003L373.062 690.462C396.965 688.576 422.631 687.101 443.193 699.396C452.848 705.175 460.7 713.741 470.601 719.028C491.839 730.462 518.285 725.175 540.425 715.647C562.565 706.118 583.127 692.286 606.558 686.548C625.951 681.794 646.349 682.757 665.865 678.556C685.78 674.234 704.18 664.676 719.166 650.871C717.977 651.977 666.542 639.764 660.207 639.518C645.386 638.944 630.543 640.358 615.701 640.317C572.508 640.195 529.273 638.576 486.099 637.94C397.634 636.602 309.129 635.932 220.582 635.932Z" fill="#70A288"/>
<path d="M653.996 323.837C658.111 328.893 662.592 333.639 667.403 338.038C667.545 338.193 667.731 338.3 667.936 338.345C668.163 338.365 668.389 338.299 668.571 338.161L670.293 337.239C677.051 337.415 683.79 336.438 690.219 334.35C690.811 334.092 691.45 333.959 692.095 333.959C692.741 333.959 693.379 334.092 693.971 334.35C694.529 334.723 694.959 335.26 695.201 335.886C695.498 336.7 695.624 337.566 695.57 338.431C695.515 339.296 695.283 340.14 694.886 340.91C694.489 341.68 693.937 342.359 693.264 342.906C692.592 343.452 691.813 343.853 690.978 344.083C691.66 345.576 691.879 347.24 691.605 348.858C691.33 350.477 690.576 351.976 689.44 353.161C687.657 354.903 685.156 355.743 683.29 357.26C678.678 361.112 678.637 368.039 676.177 373.53C675.731 374.703 674.955 375.721 673.942 376.461C671.482 378.039 668.243 376.461 665.742 374.78C662.034 372.206 658.519 369.363 655.226 366.276C653.616 364.939 652.297 363.286 651.351 361.42C650.746 359.809 650.386 358.117 650.285 356.399L647.333 329.37C647.229 328.836 647.271 328.283 647.456 327.772C647.803 327.241 648.326 326.85 648.932 326.665C651.064 325.866 651.72 323.653 653.996 323.837Z" fill="url(#paint0_linear)"/>
<path d="M668.981 333.653C668.184 335.168 667.294 336.632 666.316 338.038C665.463 339.039 664.715 340.124 664.082 341.276C663.386 343.097 663.106 345.05 663.262 346.993C663.164 347.799 663.244 348.616 663.495 349.388C663.747 350.159 664.164 350.867 664.717 351.46C665.432 351.937 666.258 352.22 667.116 352.28C670.615 352.813 674.174 352.813 677.673 352.28C679.196 352.111 680.665 351.614 681.978 350.825C683.308 349.82 684.405 348.541 685.197 347.075C691.366 337.432 696.846 327.366 701.597 316.952C701.738 316.676 701.828 316.378 701.863 316.071C701.844 315.678 701.722 315.298 701.509 314.967C701.297 314.636 701.002 314.367 700.654 314.185C699.061 313.255 697.268 312.721 695.426 312.628C692.026 312.214 688.599 312.063 685.176 312.177C684.043 312.159 682.917 312.354 681.855 312.751C680.113 313.53 671.257 329.554 668.981 333.653Z" fill="#70A288"/>
<path d="M668.981 333.653C668.184 335.168 667.294 336.632 666.316 338.038C665.463 339.039 664.715 340.124 664.082 341.276C663.386 343.097 663.106 345.05 663.262 346.993C663.164 347.799 663.244 348.616 663.495 349.388C663.747 350.159 664.164 350.867 664.717 351.46C665.432 351.937 666.258 352.22 667.116 352.28C670.615 352.813 674.174 352.813 677.673 352.28C679.196 352.111 680.665 351.614 681.978 350.825C683.308 349.82 684.405 348.541 685.197 347.075C691.366 337.432 696.846 327.366 701.597 316.952C701.738 316.676 701.828 316.378 701.863 316.071C701.844 315.678 701.722 315.298 701.509 314.967C701.297 314.636 701.002 314.367 700.654 314.185C699.061 313.255 697.268 312.721 695.426 312.628C692.026 312.214 688.599 312.063 685.176 312.177C684.043 312.159 682.917 312.354 681.855 312.751C680.113 313.53 671.257 329.554 668.981 333.653Z" fill="url(#paint1_linear)"/>
<path d="M671.625 335.579C670.847 337.101 669.964 338.566 668.981 339.965C668.128 340.972 667.379 342.064 666.746 343.223C666.047 345.064 665.774 347.04 665.947 349.001C665.845 349.807 665.923 350.626 666.175 351.398C666.426 352.17 666.846 352.877 667.402 353.469C668.12 353.94 668.945 354.222 669.801 354.288C673.294 354.811 676.845 354.811 680.338 354.288C681.868 354.123 683.344 353.626 684.664 352.834C685.976 351.8 687.064 350.51 687.862 349.042C694.031 339.4 699.511 329.334 704.262 318.919C704.406 318.643 704.503 318.346 704.549 318.038C704.529 317.646 704.407 317.265 704.195 316.935C703.983 316.604 703.688 316.334 703.339 316.153C701.743 315.228 699.953 314.687 698.112 314.575C694.711 314.168 691.284 314.024 687.862 314.144C686.728 314.118 685.6 314.313 684.541 314.718C682.778 315.476 673.901 331.481 671.625 335.579Z" fill="#70A288"/>
<path d="M699.465 518.389C670.343 552.905 639.363 585.809 606.661 616.956C606.102 617.652 605.397 618.218 604.597 618.614C603.797 619.011 602.92 619.228 602.028 619.251C601.004 619.003 600.068 618.478 599.322 617.735C592.2 611.712 586.298 604.38 581.938 596.136C581.727 595.862 581.575 595.546 581.493 595.21C581.41 594.874 581.399 594.524 581.458 594.183C581.518 593.842 581.648 593.517 581.84 593.229C582.032 592.941 582.282 592.696 582.573 592.509C606.996 566.812 630.974 540.644 654.508 514.004C655.371 513.186 656.001 512.153 656.333 511.012C656.426 509.249 655.839 507.518 654.693 506.176C642.307 487.375 631.944 467.318 623.778 446.339C623.185 445.162 622.971 443.831 623.163 442.527C623.523 441.476 624.16 440.541 625.008 439.822C632.47 432.466 655.349 415.478 663.959 428.285C669.268 436.216 672.364 446.728 676.013 455.499C680.031 465.062 683.871 474.748 687.534 484.557C691.743 495.745 695.72 507.023 699.465 518.389Z" fill="#3E3E54"/>
<path d="M699.465 518.389C670.343 552.905 639.363 585.809 606.661 616.956C606.102 617.652 605.397 618.218 604.597 618.614C603.797 619.011 602.92 619.228 602.028 619.251C601.004 619.003 600.068 618.478 599.322 617.735C592.2 611.712 586.298 604.38 581.938 596.136C581.727 595.862 581.575 595.546 581.493 595.21C581.41 594.874 581.399 594.524 581.458 594.183C581.518 593.842 581.648 593.517 581.84 593.229C582.032 592.941 582.282 592.696 582.573 592.509C606.996 566.812 630.974 540.644 654.508 514.004C655.371 513.186 656.001 512.153 656.333 511.012C656.426 509.249 655.839 507.518 654.693 506.176C642.307 487.375 631.944 467.318 623.778 446.339C623.185 445.162 622.971 443.831 623.163 442.527C623.523 441.476 624.16 440.541 625.008 439.822C632.47 432.466 655.349 415.478 663.959 428.285C669.268 436.216 672.364 446.728 676.013 455.499C680.031 465.062 683.871 474.748 687.534 484.557C691.743 495.745 695.72 507.023 699.465 518.389Z" fill="url(#paint2_linear)"/>
<path d="M592.761 470.827C595.734 493.143 606.292 513.86 609.285 536.197C610.289 543.574 610.433 551.054 611.663 558.39C613.344 568.636 617.054 578.288 618.94 588.411C621.872 604.046 620.457 620.338 624.414 635.748C624.63 637.301 625.35 638.741 626.464 639.846C627.941 640.794 629.7 641.206 631.445 641.014L649.034 641.117C650.673 606.435 649.343 571.677 645.057 537.221C644.196 530.275 643.212 523.307 642.761 516.319C641.06 489.68 647.271 462.61 643.069 436.175C627.352 437.575 611.56 437.931 595.796 437.24C592.29 437.076 589.379 435.826 588.497 439.064C587.903 441.113 590.342 447.261 590.67 449.659C591.654 456.646 591.818 463.798 592.761 470.827Z" fill="#3E3E54"/>
<path d="M665.639 429.638C664.799 430.912 663.659 431.96 662.318 432.691C655.225 437.24 647.968 441.892 639.584 443.163C635.894 443.716 632.101 443.593 628.411 444.208C624.045 444.945 619.924 446.749 615.599 447.794C609.031 449.361 602.167 449.178 595.693 447.261C593.188 446.559 590.768 445.583 588.477 444.351C587.28 443.722 586.141 442.988 585.074 442.158C583.445 440.945 582.171 439.317 581.384 437.445C580.642 435.075 580.439 432.568 580.789 430.109C582.265 409.146 585.32 387.076 576.689 367.936L573.532 368.448C573.382 368.458 573.232 368.458 573.081 368.448H572.753L571.298 368.674C567.139 354.952 564.546 340.805 563.569 326.501C563.016 317.976 563.118 308.96 567.362 301.542C571.053 295.71 576.429 291.136 582.778 288.427C586.243 286.873 589.917 285.837 593.684 285.353C600.918 284.666 608.201 284.666 615.435 285.353L629.969 286.275C631.645 286.281 633.305 286.594 634.869 287.197C636.175 287.868 637.332 288.795 638.272 289.923C645.816 298.242 648.05 310.415 655.246 318.857C655.717 319.431 656.209 319.984 656.742 320.517C656.865 320.64 657.009 320.763 657.111 320.886C657.372 321.096 657.577 321.366 657.71 321.673C657.842 321.98 657.897 322.315 657.87 322.648C657.885 322.709 657.885 322.772 657.87 322.833C657.686 323.3 657.39 323.715 657.009 324.042C654.672 326.337 652.335 328.612 650.039 330.907C650.182 332.587 650.244 334.329 650.285 336.112C650.49 342.792 650.285 350.005 651.535 356.215C656.264 378.551 660.993 400.901 665.721 423.265C666.46 425.33 666.431 427.592 665.639 429.638Z" fill="#70A288"/>
<path d="M649.813 379.596C646.095 384.794 641.171 389.013 635.463 391.891C628.862 395.15 621.523 396.481 614.369 398.203C610.023 399.248 605.307 400.723 602.827 404.473C601.217 407.599 600.507 411.111 600.777 414.617C600.633 422.814 600.449 431.011 600.305 439.33C600.305 441.851 600.059 444.72 598.091 446.339C597.437 446.862 596.662 447.215 595.836 447.363C594.54 447.566 593.214 447.468 591.962 447.077C589.277 446.193 586.924 444.513 585.217 442.261C583.376 439.842 582.101 437.041 581.486 434.064C581.199 432.748 581.014 431.412 580.933 430.068C582.409 409.105 585.463 387.035 576.833 367.895C587.636 352.198 592.618 361.071 604.734 368.981C607.412 370.672 610.256 372.086 613.221 373.202C618.405 375.547 624.056 376.676 629.744 376.502C636.222 375.969 642.044 372.711 648.009 370.026C656.886 365.928 652.458 375.948 649.813 379.596Z" fill="url(#paint3_linear)"/>
<path d="M596.431 275.271C595.816 278.324 594.381 285.312 594.381 285.312C595.249 286.971 596.526 288.382 598.091 289.41C600.776 291.324 603.886 292.554 607.152 292.996C609.694 293.345 612.729 292.996 614.02 290.742C614.503 289.771 614.782 288.711 614.84 287.627L616.234 275.558C616.367 274.51 616.367 273.45 616.234 272.402C616.011 271.325 615.594 270.297 615.004 269.369C612.523 265.271 602.294 247.258 600.08 252.156C597.866 257.053 597.271 271.172 596.431 275.271Z" fill="url(#paint4_linear)"/>
<path d="M604.488 273.836C606.928 278.688 610.623 282.799 615.189 285.742C615.15 282.444 615.557 279.156 616.398 275.968C617.116 273.283 618.141 270.373 617.054 267.771C616.571 266.668 615.874 265.672 615.004 264.84C612.052 261.889 605.636 257.115 601.044 258.529C599.363 259.041 599.752 259.307 600.162 261.111C600.47 262.525 600.818 263.939 601.228 265.332C602.034 268.266 603.126 271.115 604.488 273.836Z" fill="url(#paint5_linear)"/>
<path d="M356.272 210.884C354.236 210.884 352.284 210.077 350.843 208.641C349.402 207.204 348.59 205.255 348.584 203.22V145.576C348.53 144.535 348.689 143.493 349.051 142.516C349.412 141.538 349.969 140.643 350.687 139.887C351.405 139.131 352.27 138.53 353.228 138.118C354.187 137.707 355.219 137.495 356.262 137.495C357.304 137.495 358.337 137.707 359.295 138.118C360.253 138.53 361.118 139.131 361.836 139.887C362.554 140.643 363.111 141.538 363.473 142.516C363.834 143.493 363.993 144.535 363.939 145.576V203.22C363.933 205.251 363.124 207.197 361.687 208.634C360.251 210.07 358.304 210.879 356.272 210.884Z" fill="#70A288"/>
<path d="M342.68 596.608C432.701 596.608 505.677 508.77 505.677 400.416C505.677 292.063 432.701 204.225 342.68 204.225C252.66 204.225 179.684 292.063 179.684 400.416C179.684 508.77 252.66 596.608 342.68 596.608Z" fill="#70A288"/>
<path d="M332.656 556.32C414.309 556.32 480.503 482.198 480.503 390.764C480.503 299.33 414.309 225.208 332.656 225.208C251.002 225.208 184.809 299.33 184.809 390.764C184.809 482.198 251.002 556.32 332.656 556.32Z" fill="url(#paint6_linear)"/>
<path d="M342.68 204.225C252.664 204.225 179.704 292.074 179.704 400.437C179.704 508.799 252.664 596.628 342.68 596.628C432.696 596.628 505.677 508.779 505.677 400.437C505.677 292.095 432.717 204.225 342.68 204.225ZM337.555 565.931C253.218 565.931 184.829 489.147 184.829 394.474C184.829 299.8 253.259 223.016 337.555 223.016C421.852 223.016 490.302 299.779 490.302 394.474C490.302 489.168 421.913 565.931 337.555 565.931Z" fill="url(#paint7_linear)"/>
<path d="M271.709 418.121C275.44 418.326 274.62 411.236 274.948 407.506C276.014 395.375 274.64 383.1 275.85 370.989C277.059 358.878 281.467 346.235 291.327 339.063C294.3 337.013 297.764 335.231 299.958 332.3C302.541 328.878 302.971 324.329 304.468 320.312C308.568 309.103 321.627 302.71 333.537 303.919C345.448 305.128 355.985 312.771 363.18 322.361C367.28 327.73 370.54 333.899 375.972 337.854C378.801 339.903 382.122 341.276 384.767 343.509C388.799 347.346 391.493 352.373 392.454 357.854C394.914 368.51 394.074 379.617 394.648 390.641C395.222 401.666 397.498 413.039 404.898 421.093C408.793 425.314 413.857 428.326 417.772 432.527C421.688 436.728 424.394 442.937 422.098 448.204C419.802 453.47 414.246 455.458 409.285 457.692C389.379 466.585 372.528 482.467 351.311 487.405C332.287 491.831 312.094 486.708 294.771 477.692C277.449 468.675 262.73 455.601 247.109 443.88C217.322 421.871 247.109 416.666 271.709 418.121Z" fill="url(#paint8_linear)"/>
<path d="M281.487 456.667C274.517 443.244 262.914 429.043 247.826 430.396C244.013 430.744 240.303 432.138 236.469 432.445C228.802 432.916 221.668 428.859 214.247 426.851C206.826 424.843 197.109 425.99 194.034 432.998C192.127 437.384 193.542 442.445 195.12 446.954C207.42 481.79 229.253 513.614 259.573 534.578C289.892 555.541 328.822 564.865 364.718 556.443C380.196 552.795 394.792 546.053 408.814 538.553C420.622 532.242 432.286 525.233 441.614 515.582C458.26 498.225 465.579 474.188 472.364 451.113C474.414 443.921 476.157 434.986 470.663 429.884C467.881 427.606 464.376 426.399 460.782 426.482C456.924 426.373 453.084 427.042 449.491 428.451C445.898 429.859 442.626 431.977 439.871 434.679C437.616 436.933 435.607 439.638 432.614 440.724C428.699 442.158 424.414 440.355 420.314 439.822C400.122 437.22 388.539 463.245 369.576 470.704C359.982 474.474 349.445 472.897 339.667 475.704C330.667 478.286 322.939 486.319 313.734 487.794C295.653 490.643 288.375 469.946 281.487 456.667Z" fill="white"/>
<path d="M281.487 456.667C274.517 443.244 262.914 429.043 247.826 430.396C244.013 430.744 240.303 432.138 236.469 432.445C228.802 432.916 221.668 428.859 214.247 426.851C206.826 424.843 197.109 425.99 194.034 432.998C192.127 437.384 193.542 442.445 195.12 446.954C207.42 481.79 229.253 513.614 259.573 534.578C289.892 555.541 328.822 564.865 364.718 556.443C380.196 552.795 394.792 546.053 408.814 538.553C420.622 532.242 432.286 525.233 441.614 515.582C458.26 498.225 465.579 474.188 472.364 451.113C474.414 443.921 476.157 434.986 470.663 429.884C467.881 427.606 464.376 426.399 460.782 426.482C456.924 426.373 453.084 427.042 449.491 428.451C445.898 429.859 442.626 431.977 439.871 434.679C437.616 436.933 435.607 439.638 432.614 440.724C428.699 442.158 424.414 440.355 420.314 439.822C400.122 437.22 388.539 463.245 369.576 470.704C359.982 474.474 349.445 472.897 339.667 475.704C330.667 478.286 322.939 486.319 313.734 487.794C295.653 490.643 288.375 469.946 281.487 456.667Z" fill="url(#paint9_linear)"/>
<path d="M278.556 457.507C275.604 457.056 273.062 460.151 272.959 463.142C273.135 466.149 274.151 469.045 275.891 471.503L287.576 491.749C274.538 493.799 263.119 483.962 252.09 476.729C248.277 474.249 242.455 472.302 239.79 475.991C237.904 478.594 239.216 482.446 241.615 484.557C244.228 486.438 247.129 487.885 250.204 488.84C260.577 493.163 268.654 501.873 278.761 506.668C285.403 509.783 292.701 511.135 299.651 513.492C306.252 515.725 313.242 519.639 314.882 526.484C316.092 531.545 313.96 536.73 313.98 541.976C314.001 547.222 318.203 553.308 323.144 551.689C326.301 550.644 327.715 547.078 328.74 543.922L336.243 520.766C344.443 526.197 343.644 540.213 352.459 544.435L354.611 529.66C354.707 528.234 355.083 526.842 355.718 525.561C356.475 524.521 357.44 523.648 358.552 522.999C359.663 522.35 360.897 521.939 362.176 521.791C367.24 520.766 372.57 521.176 377.469 519.557C384.542 517.201 389.523 511.033 395.038 506.012C401.434 500.172 408.896 495.643 415.661 490.213C428.455 479.868 438.45 466.481 444.73 451.278C439.953 449.679 434.808 453.04 431.938 457.179C429.068 461.319 427.592 466.319 424.701 470.479C422.257 473.896 418.951 476.606 415.121 478.333C411.29 480.061 407.07 480.744 402.889 480.315C402.021 477.851 401.918 475.182 402.595 472.658C403.272 470.135 404.697 467.875 406.682 466.175C407.752 465.457 408.741 464.625 409.634 463.696C413.139 459.474 408.322 452.63 402.848 452.138C397.375 451.646 392.393 454.925 387.74 457.876C378.435 463.783 368.567 468.753 358.281 472.712C351.024 475.52 343.336 477.856 335.567 477.241C323.677 476.319 313.55 469.044 301.885 467.179C297.375 466.483 291.122 468.901 287.289 466.975C283.455 465.048 283.476 458.245 278.556 457.507Z" fill="url(#paint10_linear)"/>
<path d="M322.262 545.767C320.67 548.073 319.567 550.682 319.023 553.431C318.933 556.418 319.716 559.367 321.278 561.915C322.467 564.169 324.312 566.628 326.834 566.464C327.777 566.334 328.68 565.998 329.478 565.48C331.05 564.66 332.477 563.587 333.701 562.304C336.571 559.066 337.063 554.394 336.94 550.009C336.817 545.623 336.223 541.259 337.412 537.119C338.908 531.894 343.131 527.59 343.787 522.201C340.897 521.402 335.239 518.533 332.328 519.045C329.417 519.558 329.929 523.39 329.519 525.664C328.347 532.751 325.887 539.564 322.262 545.767Z" fill="url(#paint11_linear)"/>
<path d="M340.774 529.578C341.477 531.151 342.04 532.783 342.455 534.455C342.762 536.091 342.927 537.75 342.947 539.414L343.951 560.869C343.857 563.077 344.352 565.269 345.386 567.222C347.252 570.091 351.126 570.931 354.509 570.521C355.6 570.457 356.649 570.072 357.522 569.415C358.132 568.842 358.608 568.143 358.916 567.366C359.732 565.732 360.292 563.984 360.577 562.181C361.253 557.447 359.347 552.734 357.215 548.451C355.083 544.168 352.664 539.865 352.192 535.09C351.803 531.32 352.705 527.488 352.315 523.717C351.987 520.5 350.716 517.344 350.962 514.127C348.603 514.418 346.262 514.842 343.951 515.397C342.106 515.848 338.457 516.279 336.981 517.447C335.259 519.127 339.851 527.324 340.774 529.578Z" fill="url(#paint12_linear)"/>
<path d="M306.908 304.165C301.978 298.092 299.506 290.392 299.979 282.586C300.504 274.787 303.764 267.422 309.183 261.787C313.283 257.565 318.798 254.307 324.579 254.881C326.752 251.889 331.077 251.028 334.685 250.229C340.941 248.738 347.482 248.951 353.627 250.844C359.794 252.763 365.054 256.856 368.428 262.361C371.254 267.807 372.79 273.829 372.918 279.963C373.01 286.074 373.697 292.162 374.968 298.14C376.588 304.042 380.052 309.759 385.546 312.484C386.429 312.792 387.215 313.33 387.822 314.042C388.888 315.599 387.822 317.73 386.346 319.001C384.826 320.343 383.022 321.323 381.07 321.87C379.117 322.416 377.066 322.514 375.071 322.157L376.834 326.03C376.932 326.143 377.002 326.279 377.036 326.426C377.07 326.572 377.068 326.725 377.03 326.871C376.991 327.016 376.918 327.15 376.816 327.261C376.714 327.371 376.586 327.455 376.444 327.505C374.849 328.481 373.024 329.016 371.155 329.056C369.285 329.096 367.439 328.638 365.804 327.731C365.945 329.264 365.869 330.809 365.579 332.321C361.364 331.842 357.316 330.397 353.75 328.099C353.75 330.579 351.044 332.341 348.584 332.198C346.129 331.807 343.786 330.891 341.717 329.513C341.106 329.109 340.398 328.875 339.667 328.837C338.17 328.837 337.166 330.272 336.018 331.214C334.918 332.007 333.654 332.54 332.319 332.774C330.984 333.008 329.613 332.937 328.31 332.567C325.705 331.81 323.251 330.61 321.053 329.022C321.422 330.497 319.864 331.911 318.347 331.911C316.823 331.766 315.403 331.075 314.349 329.964C311.659 327.707 309.792 324.623 309.04 321.194C308.169 322.368 307.049 323.333 305.76 324.021C305.111 324.351 304.372 324.462 303.655 324.336C302.938 324.211 302.281 323.856 301.783 323.325C300.655 321.87 301.434 319.8 302.254 318.161L305.104 312.402C306.559 309.431 309.019 306.747 306.908 304.165Z" fill="#3E3E54"/>
<path d="M386.51 318.98C384.995 320.324 383.195 321.306 381.246 321.853C379.296 322.4 377.248 322.497 375.255 322.136L377.039 326.009C377.122 326.142 377.177 326.29 377.202 326.445C377.227 326.6 377.22 326.758 377.182 326.911C377.066 327.163 376.872 327.372 376.629 327.505C375.029 328.468 373.203 328.993 371.336 329.029C369.469 329.065 367.625 328.61 365.989 327.71C366.12 329.243 366.044 330.787 365.764 332.3C361.548 331.821 357.5 330.377 353.935 328.079C354.037 330.558 351.249 332.3 348.748 332.177C346.292 331.812 343.951 330.894 341.901 329.493C341.286 329.099 340.581 328.866 339.851 328.816C338.355 328.816 337.35 330.271 336.202 331.214C335.103 332.006 333.838 332.54 332.503 332.774C331.169 333.008 329.798 332.937 328.494 332.566C325.891 331.805 323.437 330.606 321.237 329.021C321.606 330.497 320.069 331.89 318.531 331.911C317.007 331.766 315.587 331.074 314.534 329.964C311.833 327.707 309.964 324.613 309.224 321.173C308.36 322.358 307.239 323.332 305.944 324.021C305.279 324.371 304.517 324.492 303.776 324.367C303.035 324.241 302.356 323.874 301.844 323.325C300.737 321.87 301.537 319.779 302.336 318.161C303.3 316.234 304.222 314.328 305.186 312.402C306.662 309.431 309.081 306.746 306.969 304.205C304.25 300.901 302.259 297.061 301.127 292.935C300.223 289.599 299.856 286.14 300.04 282.689C300.575 274.891 303.832 267.53 309.245 261.889C313.345 257.791 318.839 254.43 324.64 255.004C326.793 252.012 331.139 251.151 334.747 250.352C341.002 248.862 347.543 249.074 353.689 250.967C359.856 252.886 365.115 256.979 368.49 262.483C371.309 267.931 372.838 273.954 372.959 280.086C373.116 285.74 373.719 291.372 374.763 296.931C374.763 297.402 374.968 297.832 375.091 298.263C376.731 304.164 380.196 309.902 385.69 312.607C386.566 312.94 387.352 313.473 387.986 314.165C388.99 315.578 387.822 317.71 386.51 318.98Z" fill="url(#paint13_linear)"/>
<path d="M640.711 260.086C639.662 265.612 637.068 270.728 633.229 274.84C629.129 278.734 622.979 280.783 617.833 278.754C614.282 277.041 611.243 274.427 609.018 271.172C606.686 268.454 604.696 265.461 603.094 262.258C600.887 260.919 598.873 259.285 597.108 257.402C595.991 256.4 595.094 255.179 594.473 253.814C593.852 252.449 593.521 250.97 593.5 249.471C593.746 246.5 596.903 243.733 599.65 244.881C602.356 241.008 602.827 235.987 604.98 231.766C606.545 228.867 608.8 226.397 611.545 224.574C614.291 222.752 617.443 221.632 620.724 221.315C624.012 221.069 627.316 221.487 630.44 222.543C633.564 223.599 636.443 225.272 638.907 227.463C640.674 228.775 642.014 230.578 642.761 232.647C643.807 236.356 643.171 241.397 642.761 245.209C642.448 250.212 641.763 255.185 640.711 260.086Z" fill="url(#paint14_linear)"/>
<path d="M647.19 217.483C640.445 218.179 634.356 213.773 628.739 209.88C623.122 205.986 616.337 202.236 609.9 204.409C608.137 205.014 606.538 206.016 605.226 207.339C604.371 208.391 603.345 209.291 602.192 210.003C601.328 210.339 600.436 210.6 599.527 210.782C594.176 212.38 592.167 218.978 591.716 224.47C591.439 228.01 591.439 231.566 591.716 235.106C592.024 238.958 592.987 243.303 596.329 245.249C598.153 246.294 600.613 246.561 601.741 248.344C602.212 249.081 602.581 250.167 603.463 250.208C603.679 250.205 603.892 250.158 604.089 250.07C604.286 249.982 604.464 249.855 604.611 249.696C608.055 246.684 606.312 241.089 607.153 236.581C607.232 236.069 607.421 235.58 607.706 235.147C608.27 234.536 608.973 234.072 609.756 233.794C612.401 232.4 614.437 230.08 615.476 227.278C619.056 231.233 623.617 234.174 628.698 235.802C630.392 236.218 632.006 236.911 633.475 237.852C634.649 238.929 635.732 240.101 636.714 241.356C641.183 245.946 649.404 245.29 654.037 240.864C656.223 238.51 657.771 235.636 658.532 232.516C659.292 229.395 659.241 226.131 658.383 223.036C657.499 223.529 656.504 223.789 655.492 223.789C654.48 223.789 653.485 223.529 652.602 223.036C653.135 223.343 657.829 216.069 656.702 214.839C655.574 213.61 648.912 217.298 647.19 217.483Z" fill="#3E3E54"/>
<path d="M647.19 217.483C640.445 218.179 634.356 213.773 628.739 209.88C623.122 205.986 616.337 202.236 609.9 204.409C608.137 205.014 606.538 206.016 605.226 207.339C604.371 208.391 603.345 209.291 602.192 210.003C601.328 210.339 600.436 210.6 599.527 210.782C594.176 212.38 592.167 218.978 591.716 224.47C591.439 228.01 591.439 231.566 591.716 235.106C592.024 238.958 592.987 243.303 596.329 245.249C598.153 246.294 600.613 246.561 601.741 248.344C602.212 249.081 602.581 250.167 603.463 250.208C603.679 250.205 603.892 250.158 604.089 250.07C604.286 249.982 604.464 249.855 604.611 249.696C608.055 246.684 606.312 241.089 607.153 236.581C607.232 236.069 607.421 235.58 607.706 235.147C608.27 234.536 608.973 234.072 609.756 233.794C612.401 232.4 614.437 230.08 615.476 227.278C619.056 231.233 623.617 234.174 628.698 235.802C630.392 236.218 632.006 236.911 633.475 237.852C634.649 238.929 635.732 240.101 636.714 241.356C641.183 245.946 649.404 245.29 654.037 240.864C656.223 238.51 657.771 235.636 658.532 232.516C659.292 229.395 659.241 226.131 658.383 223.036C657.499 223.529 656.504 223.789 655.492 223.789C654.48 223.789 653.485 223.529 652.602 223.036C653.135 223.343 657.829 216.069 656.702 214.839C655.574 213.61 648.912 217.298 647.19 217.483Z" fill="url(#paint15_linear)"/>
<path d="M595.365 346.071C601.586 352.378 608.164 358.324 615.066 363.879C615.694 364.448 616.434 364.88 617.239 365.149C618.34 365.317 619.467 365.183 620.498 364.76C622.856 364.002 625.193 363.223 627.53 362.424C634.16 360.376 640.623 357.82 646.861 354.78C653.011 351.563 658.157 341.153 664.02 341.276C664.143 342.465 663.159 344.083 663.282 345.272C663.282 345.658 663.412 346.034 663.651 346.338C663.879 346.526 664.156 346.647 664.45 346.686C668.55 347.526 672.507 345.006 676.382 343.366C676.978 343.048 677.656 342.913 678.329 342.977C679.969 343.284 680.379 345.641 679.518 347.075C678.49 348.387 677.321 349.583 676.033 350.641C672.999 353.92 673.122 359.002 671.01 362.936C670.119 364.591 668.848 366.011 667.302 367.08C665.755 368.148 663.977 368.835 662.113 369.084C661.055 369.144 660 369.267 658.956 369.453C657.232 370.034 655.637 370.945 654.262 372.137C646.362 377.575 637.91 382.163 629.047 385.826C625.545 387.605 621.851 388.98 618.038 389.924C615.071 390.311 612.128 390.865 609.223 391.584C606.599 392.445 604.098 394.002 601.33 393.838C597.374 393.572 594.627 389.904 592.433 386.584C588.333 380.272 582.962 372.957 581.63 365.334C580.994 361.727 584.336 359.186 586.55 356.645L595.365 346.071Z" fill="url(#paint16_linear)"/>
<path d="M628.575 655.502C628.545 656.318 628.759 657.124 629.19 657.818C629.563 658.236 630.035 658.553 630.564 658.74C632.578 659.449 634.701 659.802 636.837 659.785C650.845 660.441 664.854 660.55 678.862 660.113C673.913 654.419 667.15 650.604 659.715 649.314C656.25 648.719 652.683 648.678 649.26 647.818C648.937 647.754 648.635 647.613 648.378 647.408C648.151 647.096 648.016 646.727 647.989 646.342L647.128 640.85C647.136 640.555 647.042 640.265 646.861 640.031C646.587 639.82 646.241 639.725 645.898 639.764L636.283 639.6C634.397 639.6 631.732 639.109 630.133 640.297C628.534 641.486 628.657 644.191 628.575 646.076C628.466 649.245 628.466 652.387 628.575 655.502Z" fill="#3E3E54"/>
<path d="M569.843 608.575C569.17 609.099 568.67 609.813 568.408 610.624C568.298 611.422 568.427 612.235 568.777 612.96C572.405 622.51 579.58 630.194 586.612 637.551C592.27 643.535 598.051 649.621 605.287 653.555C608.731 643.432 605.103 631.875 598.276 623.637C597.395 622.792 596.831 621.671 596.677 620.46C596.916 619.355 597.302 618.287 597.825 617.284C597.977 616.171 597.871 615.038 597.516 613.972C597.161 612.906 596.565 611.936 595.775 611.137C592.544 606.52 588.502 602.527 583.844 599.354C580.482 597.304 579.744 598.882 577.12 601.403L569.843 608.575Z" fill="#3E3E54"/>
<path d="M301.68 344.677C299.003 345.704 296.642 347.414 294.833 349.636C293.492 351.89 292.686 354.421 292.475 357.034C288.478 384.084 290.61 411.605 292.742 438.859L295.735 476.974C296.288 484.188 296.965 491.729 300.88 497.815C303.719 501.9 307.54 505.205 311.991 507.426C326.772 515.295 344.505 514.065 361.192 512.651C364.876 512.552 368.516 511.824 371.954 510.499C376.984 507.865 380.888 503.496 382.942 498.204C386.919 489.413 387.596 479.515 387.821 469.843C388.416 444.126 386.079 418.346 387.678 392.649C388.58 378.305 390.322 362.546 381.856 350.968C376.421 344.166 368.738 339.524 360.187 337.874C341.614 333.714 318.859 336.747 301.68 344.677Z" fill="white"/>
<path d="M287.719 466.4C287.597 471.773 288.127 477.14 289.298 482.384C290.156 486.458 291.585 490.39 293.541 494.065C298.07 501.656 304.939 507.574 313.119 510.93C321.265 514.24 329.903 516.179 338.683 516.668C347.759 517.675 356.943 516.98 365.763 514.618C374.643 512.206 382.286 506.535 387.166 498.737C392.475 489.557 392.332 478.245 391.799 467.732C391.204 456.38 390.261 444.802 385.854 434.31C385.424 433.101 384.723 432.008 383.804 431.113C382.69 430.326 381.347 429.932 379.986 429.991C378.624 430.051 377.32 430.56 376.28 431.441C374.236 433.25 372.618 435.489 371.544 437.998L357.809 464.925C357.121 466.534 356.109 467.985 354.837 469.187C352.049 471.482 347.867 470.991 344.587 469.638C338.74 466.996 333.677 462.888 329.888 457.712C325.932 452.712 322.672 447.199 318.88 442.076C317.46 440.02 315.731 438.195 313.755 436.666C310.029 434.377 305.724 433.204 301.352 433.285C296.862 433.101 295.817 433.777 294.074 437.998C290.243 447 288.089 456.625 287.719 466.4Z" fill="#3E3E54"/>
<path d="M287.719 466.4C287.597 471.773 288.127 477.14 289.298 482.384C290.156 486.458 291.585 490.39 293.541 494.065C298.07 501.656 304.939 507.574 313.119 510.93C321.265 514.24 329.903 516.179 338.683 516.668C347.759 517.675 356.943 516.98 365.763 514.618C374.643 512.206 382.286 506.535 387.166 498.737C392.475 489.557 392.332 478.245 391.799 467.732C391.204 456.38 390.261 444.802 385.854 434.31C385.424 433.101 384.723 432.008 383.804 431.113C382.69 430.326 381.347 429.932 379.986 429.991C378.624 430.051 377.32 430.56 376.28 431.441C374.236 433.25 372.618 435.489 371.544 437.998L357.809 464.925C357.121 466.534 356.109 467.985 354.837 469.187C352.049 471.482 347.867 470.991 344.587 469.638C338.74 466.996 333.677 462.888 329.888 457.712C325.932 452.712 322.672 447.199 318.88 442.076C317.46 440.02 315.731 438.195 313.755 436.666C310.029 434.377 305.724 433.204 301.352 433.285C296.862 433.101 295.817 433.777 294.074 437.998C290.243 447 288.089 456.625 287.719 466.4Z" fill="url(#paint17_linear)"/>
<path d="M295.796 348.673C292.434 350.19 290.364 353.591 288.703 356.87C282.435 369.428 279.105 383.247 278.966 397.281C278.966 400.436 279.212 403.941 281.467 406.154C284.48 409.125 289.4 408.408 293.459 407.26C299.22 405.641 305.596 402.732 307.092 397.014C308.876 390.149 302.439 380.846 300.511 374.309C299.773 371.85 293.664 349.636 295.796 348.673Z" fill="white"/>
<path d="M329.95 340.21C330.06 341.728 330.442 343.213 331.077 344.596C332.204 346.549 334.051 347.983 336.223 348.592C336.791 348.778 337.389 348.855 337.986 348.817C338.477 348.763 338.956 348.624 339.4 348.407C340.829 347.747 342.075 346.748 343.029 345.497C344.459 343.37 345.333 340.918 345.571 338.366C346.114 334.051 346.279 329.697 346.063 325.354C346.128 324.776 346.06 324.192 345.865 323.645C345.669 323.098 345.351 322.603 344.935 322.198C344.441 321.934 343.896 321.781 343.336 321.747C341.253 321.519 339.159 321.402 337.063 321.399C334.933 321.254 332.794 321.358 330.688 321.706C329.704 321.931 329.827 322.341 329.724 323.325C329.622 324.308 329.56 325.374 329.499 326.46C329.376 328.632 329.355 330.804 329.499 332.956C329.642 335.108 329.663 337.813 329.95 340.21Z" fill="url(#paint18_linear)"/>
<path d="M329.806 339.575C329.951 338.71 330.28 337.885 330.77 337.157C331.11 336.802 331.517 336.518 331.967 336.321C332.418 336.125 332.902 336.018 333.394 336.009C338.63 335.272 343.943 335.272 349.179 336.009C349.87 336.025 350.55 336.195 351.167 336.507C351.784 336.819 352.324 337.265 352.746 337.813C353.404 339.146 353.68 340.635 353.545 342.116C353.644 350.177 353.123 358.234 351.987 366.215C351.393 369.985 350.388 374.166 347.703 375.949C345.017 377.731 342.414 376.666 339.81 375.785L332.779 373.346C332.054 373.149 331.363 372.845 330.729 372.444C327.551 370.108 327.223 363.243 327.305 359.104C327.438 352.524 328.276 345.977 329.806 339.575Z" fill="#70A288"/>
<path d="M329.806 339.575C329.951 338.71 330.28 337.885 330.77 337.157C331.11 336.802 331.517 336.518 331.967 336.321C332.418 336.125 332.902 336.018 333.394 336.009C338.63 335.272 343.943 335.272 349.179 336.009C349.87 336.025 350.55 336.195 351.167 336.507C351.784 336.819 352.324 337.265 352.746 337.813C353.404 339.146 353.68 340.635 353.545 342.116C353.644 350.177 353.123 358.234 351.987 366.215C351.393 369.985 350.388 374.166 347.703 375.949C345.017 377.731 342.414 376.666 339.81 375.785L332.779 373.346C332.054 373.149 331.363 372.845 330.729 372.444C327.551 370.108 327.223 363.243 327.305 359.104C327.438 352.524 328.276 345.977 329.806 339.575Z" fill="url(#paint19_linear)"/>
<path d="M331.651 342.177C331.788 341.31 332.117 340.483 332.615 339.759C333.301 339.054 334.234 338.642 335.218 338.612C340.461 337.874 345.781 337.874 351.024 338.612C351.714 338.634 352.391 338.807 353.007 339.119C353.623 339.43 354.164 339.873 354.591 340.415C355.243 341.751 355.519 343.238 355.39 344.718C355.482 352.78 354.954 360.836 353.812 368.817C353.238 372.608 352.213 376.768 349.527 378.551C347.149 380.149 344.238 379.289 341.635 378.387L334.624 375.948C333.898 375.756 333.206 375.452 332.574 375.047C329.396 372.711 329.068 365.846 329.15 361.706C329.273 355.125 330.111 348.577 331.651 342.177Z" fill="#70A288"/>
<path d="M315.641 309.185C317.214 311.861 319.13 314.32 321.34 316.501C324.333 319.697 327.49 322.976 331.774 324.124C335.814 324.913 339.996 324.507 343.808 322.956C345.525 322.419 347.192 321.733 348.789 320.906C352.816 318.426 356.245 315.088 358.834 311.132C359.952 309.724 360.889 308.182 361.622 306.541C362.363 304.612 362.799 302.58 362.914 300.517C363.15 297.489 363.15 294.447 362.914 291.418C362.918 287.513 361.691 283.706 359.408 280.537C357.926 278.859 356.102 277.518 354.058 276.602C345.96 272.688 336.53 272.975 327.572 273.877C323.472 274.307 319.126 274.984 316.194 277.852C312.361 281.603 312.402 286.193 312.832 291.029C313.488 297.381 312.484 303.304 315.641 309.185Z" fill="url(#paint20_linear)"/>
<path d="M374.701 296.808C371.565 296.808 368.285 296.582 367.854 297.218C367.257 297.856 366.451 298.259 365.582 298.353C364.713 298.447 363.839 298.226 363.119 297.73C363.119 296.131 363.119 294.533 363.119 292.914C362.601 293.07 362.055 293.103 361.522 293.011C360.989 292.92 360.485 292.705 360.05 292.385C359.614 292.065 359.259 291.648 359.013 291.168C358.766 290.687 358.635 290.155 358.629 289.615C355.195 291.236 351.36 291.813 347.6 291.275C344.305 291.145 341.037 290.629 337.863 289.738C333.608 288.2 329.798 285.639 326.769 282.279C323.741 278.919 321.587 274.865 320.499 270.475C320.274 274.164 316.768 277.381 315.394 280.721C314.719 282.861 314.232 285.055 313.939 287.279C313.565 289.41 312.725 291.432 311.479 293.201C310.23 294.992 308.333 296.227 306.19 296.644C305.001 294.806 303.177 293.471 301.065 292.894C300.161 289.558 299.794 286.099 299.978 282.648C300.513 274.85 303.771 267.489 309.183 261.848C313.283 257.75 318.777 254.389 324.579 254.963C326.731 251.971 331.077 251.11 334.685 250.311C340.941 248.821 347.481 249.033 353.627 250.926C359.794 252.845 365.054 256.938 368.428 262.442C371.248 267.89 372.777 273.913 372.897 280.045C373.059 285.671 373.662 291.276 374.701 296.808Z" fill="#3E3E54"/>
<path d="M374.701 296.808C371.565 296.808 368.285 296.582 367.854 297.218C367.257 297.856 366.451 298.259 365.582 298.353C364.713 298.447 363.839 298.226 363.119 297.73C363.119 296.131 363.119 294.533 363.119 292.914C362.601 293.07 362.055 293.103 361.522 293.011C360.989 292.92 360.485 292.705 360.05 292.385C359.614 292.065 359.259 291.648 359.013 291.168C358.766 290.687 358.635 290.155 358.629 289.615C355.195 291.236 351.36 291.813 347.6 291.275C344.305 291.145 341.037 290.629 337.863 289.738C333.608 288.2 329.798 285.639 326.769 282.279C323.741 278.919 321.587 274.865 320.499 270.475C320.274 274.164 316.768 277.381 315.394 280.721C314.719 282.861 314.232 285.055 313.939 287.279C313.565 289.41 312.725 291.432 311.479 293.201C310.23 294.992 308.333 296.227 306.19 296.644C305.001 294.806 303.177 293.471 301.065 292.894C300.161 289.558 299.794 286.099 299.978 282.648C300.513 274.85 303.771 267.489 309.183 261.848C313.283 257.75 318.777 254.389 324.579 254.963C326.731 251.971 331.077 251.11 334.685 250.311C340.941 248.821 347.481 249.033 353.627 250.926C359.794 252.845 365.054 256.938 368.428 262.442C371.248 267.89 372.777 273.913 372.897 280.045C373.059 285.671 373.662 291.276 374.701 296.808Z" fill="url(#paint21_linear)"/>
<path d="M366.297 306.009C367.631 305.652 368.798 304.84 369.597 303.714C370.205 302.679 370.498 301.49 370.438 300.291C370.483 299.475 370.34 298.658 370.02 297.905C369.701 297.152 369.212 296.482 368.593 295.947C368.123 295.613 367.578 295.399 367.005 295.324C366.433 295.249 365.852 295.316 365.311 295.518C364.771 295.72 364.288 296.052 363.906 296.484C363.524 296.916 363.254 297.435 363.119 297.996C362.965 298.751 362.923 299.525 362.996 300.291C362.987 302.085 362.781 303.871 362.381 305.619C362.156 306.767 362.381 306.665 363.55 306.562C364.484 306.49 365.407 306.304 366.297 306.009Z" fill="url(#paint22_linear)"/>
<path d="M308.199 304.37C306.728 302.772 305.909 300.681 305.903 298.509C305.838 297.409 306.05 296.31 306.518 295.312C306.906 294.48 307.516 293.771 308.281 293.263C308.985 292.758 309.846 292.519 310.71 292.591C311.574 292.662 312.384 293.038 312.996 293.653C313.313 294.077 313.549 294.557 313.693 295.066C314.123 296.617 314.371 298.213 314.431 299.821C314.554 301.317 314.677 302.812 314.78 304.288C314.882 305.456 315.333 306.337 314.185 306.603C311.868 307.218 309.962 305.251 308.199 304.37Z" fill="url(#paint23_linear)"/>
<path d="M391.963 392.568C394.514 394.886 396.601 397.667 398.113 400.764C399.595 403.865 399.822 407.418 398.748 410.683C398.191 412.296 397.182 413.716 395.841 414.773C394.5 415.83 392.883 416.48 391.184 416.646C388.798 416.605 386.47 415.902 384.46 414.617C379.435 412.042 374.865 408.665 370.929 404.617C370.316 404.082 369.891 403.363 369.72 402.568C369.723 402.052 369.828 401.543 370.028 401.068C370.229 400.593 370.521 400.163 370.888 399.801C373.902 395.949 377.162 389.555 381.139 386.768C383.476 385.026 383.414 385.457 386.079 387.444C388.161 389.008 390.128 390.72 391.963 392.568Z" fill="white"/>
<path d="M343.07 373.797C342.023 372.959 341.104 371.971 340.343 370.867C337.945 367.035 339.605 361.748 337.555 357.69C336.797 356.194 335.505 354.657 335.936 353.038C336.489 350.989 339.4 350.6 341.553 350.989C345.02 351.624 348.328 352.933 351.29 354.842C353.002 353.525 354.292 351.737 355.001 349.698C357.564 352.444 356.293 356.87 357.051 360.559C357.81 364.248 361.151 367.342 364.062 369.965L385.505 388.736C386.514 389.24 387.374 390.001 387.997 390.941C388.621 391.881 388.988 392.968 389.06 394.093C389.133 395.219 388.909 396.344 388.411 397.356C387.913 398.369 387.159 399.233 386.223 399.863C383.886 402.629 381.344 406.42 377.777 404.72C373.677 402.814 369.577 397.424 366.194 394.474L343.07 373.797Z" fill="url(#paint24_linear)"/>
<path d="M290.59 435.499L334.152 519.004L350.778 513.738C350.778 513.738 329.191 407.179 317.076 401.277C314.103 399.843 307.092 402.179 299.446 406.379C294.459 409.117 290.741 413.696 289.086 419.137C287.431 424.578 287.971 430.45 290.59 435.499Z" fill="#3E3E54"/>
<path d="M290.59 435.499L334.152 519.004L350.778 513.738C350.778 513.738 329.191 407.179 317.076 401.277C314.103 399.843 307.092 402.179 299.446 406.379C294.459 409.117 290.741 413.696 289.086 419.137C287.431 424.578 287.971 430.45 290.59 435.499Z" fill="url(#paint25_linear)"/>
<path d="M369.802 402.711C369.802 402.711 359.101 403.572 357.502 410.396C355.903 417.22 328.269 518.144 328.269 518.144L348.769 523.267C348.769 523.267 388.026 437.958 389.769 426.011C391.511 414.064 369.802 402.711 369.802 402.711Z" fill="#3E3E54"/>
<path d="M369.802 402.711C369.802 402.711 359.101 403.572 357.502 410.396C355.903 417.22 328.269 518.144 328.269 518.144L348.769 523.267C348.769 523.267 388.026 437.958 389.769 426.011C391.511 414.064 369.802 402.711 369.802 402.711Z" fill="#3E3E54"/>
<path d="M312.258 569.435C312.165 572.709 313.349 575.89 315.559 578.308C317.065 579.617 318.921 580.457 320.898 580.727C322.875 580.996 324.889 580.682 326.69 579.825C330.294 578.018 333.051 574.88 334.378 571.074C335.664 567.298 336.254 563.32 336.12 559.332C336.209 558.078 335.998 556.821 335.505 555.664C334.802 554.528 333.793 553.612 332.594 553.021C328.761 550.808 320.889 547.98 317.486 551.423C313.714 555.234 312.094 564.333 312.258 569.435Z" fill="#70A288"/>
<path d="M346.985 575.726C348.333 578.149 350.308 580.165 352.703 581.564C355.097 582.963 357.824 583.692 360.597 583.677C362.67 583.625 364.656 582.833 366.194 581.443C367.198 580.227 367.929 578.808 368.336 577.284C368.742 575.76 368.816 574.166 368.552 572.611C368.425 570.402 367.961 568.226 367.178 566.156C365.348 562.227 362.78 558.686 359.613 555.726C359.464 555.507 359.237 555.353 358.978 555.295C358.721 555.314 358.477 555.415 358.281 555.582C356.163 557.288 353.842 558.726 351.372 559.865C347.088 561.546 343.972 558.513 344.013 564.332C343.991 568.325 345.016 572.253 346.985 575.726Z" fill="#70A288"/>
<path d="M312.258 569.435C312.165 572.709 313.349 575.89 315.559 578.308C317.065 579.617 318.921 580.457 320.898 580.727C322.875 580.996 324.889 580.682 326.69 579.825C330.294 578.018 333.051 574.88 334.378 571.074C335.664 567.298 336.254 563.32 336.12 559.332C336.209 558.078 335.998 556.821 335.505 555.664C334.802 554.528 333.793 553.612 332.594 553.021C328.761 550.808 320.889 547.98 317.486 551.423C313.714 555.234 312.094 564.333 312.258 569.435Z" fill="#3E3E54"/>
<path d="M346.985 575.726C348.333 578.149 350.308 580.165 352.703 581.564C355.097 582.963 357.824 583.692 360.597 583.677C362.67 583.625 364.656 582.833 366.194 581.443C367.198 580.227 367.929 578.808 368.336 577.284C368.742 575.76 368.816 574.166 368.552 572.611C368.425 570.402 367.961 568.226 367.178 566.156C365.348 562.227 362.78 558.686 359.613 555.726C359.464 555.507 359.237 555.353 358.978 555.295C358.721 555.314 358.477 555.415 358.281 555.582C356.163 557.288 353.842 558.726 351.372 559.865C347.088 561.546 343.972 558.513 344.013 564.332C343.991 568.325 345.016 572.253 346.985 575.726Z" fill="#3E3E54"/>
<path d="M538.211 540.439C509.961 590.911 469.105 623.125 436.673 645.584C435.392 646.477 433.869 646.956 432.307 646.957C431.433 646.96 430.565 646.808 429.744 646.506C428.409 646.037 427.23 645.208 426.337 644.11C425.444 643.012 424.872 641.689 424.686 640.287C424.499 638.884 424.704 637.458 425.278 636.164C425.853 634.871 426.774 633.763 427.94 632.961C458.998 611.465 498.112 580.644 524.804 532.959C555.103 478.819 564.492 411.072 552.704 331.604C541.819 258.16 500.142 205.106 428.822 173.937C395.243 159.534 359.431 151.028 322.959 148.793C320.92 148.742 318.985 147.883 317.58 146.405C316.175 144.927 315.415 142.952 315.466 140.914C315.518 138.876 316.377 136.942 317.856 135.537C319.334 134.133 321.31 133.373 323.349 133.424C361.682 135.604 399.336 144.482 434.603 159.654C510.289 192.585 556.394 251.275 567.997 329.35C580.174 412.261 570.17 483.307 538.211 540.439Z" fill="#70A288"/>
<path d="M530.831 541.669C502.725 591.874 462.094 624.047 429.724 646.486C428.389 646.017 427.209 645.188 426.316 644.09C425.423 642.992 424.852 641.669 424.665 640.266C424.478 638.864 424.684 637.437 425.258 636.144C425.833 634.851 426.754 633.742 427.92 632.94C458.978 611.444 498.092 580.624 524.783 532.939C555.082 478.799 564.472 411.052 552.684 331.583C541.798 258.139 500.122 205.085 428.802 173.917C395.228 159.523 359.422 151.024 322.959 148.793C321.34 148.741 319.779 148.178 318.499 147.186C317.219 146.195 316.285 144.824 315.83 143.27C315.376 141.716 315.424 140.058 315.968 138.533C316.512 137.007 317.524 135.693 318.859 134.777C356.211 137.304 392.865 146.138 427.264 160.904C502.951 193.692 549.076 252.504 560.679 330.6C572.815 413.49 562.811 484.516 530.831 541.669Z" fill="url(#paint26_linear)"/>
<path d="M527.059 717.388L526.956 717.511C526.236 718.384 525.331 719.087 524.306 719.568C523.282 720.05 522.164 720.299 521.031 720.298C519.241 720.31 517.504 719.686 516.132 718.536L430.851 648.063L312.176 694.191C310.273 694.927 308.155 694.878 306.289 694.054C304.422 693.229 302.96 691.698 302.223 689.795C301.487 687.893 301.536 685.776 302.361 683.911C303.185 682.045 304.718 680.583 306.621 679.846L433.721 630.46L525.972 706.671C527.523 707.958 528.505 709.803 528.708 711.807C528.912 713.812 528.319 715.816 527.059 717.388Z" fill="#70A288"/>
<path d="M527.059 717.388L526.956 717.511C526.236 718.384 525.331 719.087 524.306 719.569C523.282 720.051 522.164 720.3 521.032 720.298C519.241 720.311 517.504 719.686 516.132 718.536L430.851 648.064L312.176 694.191C310.647 694.792 308.966 694.883 307.381 694.451C305.796 694.019 304.394 693.087 303.382 691.794C304.228 690.715 305.345 689.88 306.621 689.376L433.66 640.031L525.911 716.261C526.337 716.59 526.722 716.968 527.059 717.388Z" fill="url(#paint27_linear)"/>
<path d="M332.82 356.789C332.055 356.796 331.306 356.578 330.664 356.163C330.023 355.748 329.517 355.153 329.212 354.452C328.966 353.756 329.027 352.977 328.761 352.26C328.494 351.543 327.756 350.907 327.059 351.215C326.792 351.344 326.571 351.552 326.424 351.809C324.866 354.084 325.378 357.137 324.743 359.842C324.178 361.805 323.253 363.646 322.016 365.272C315.798 373.747 307.898 380.849 298.81 386.133C296.281 387.388 294.051 389.17 292.27 391.359C291.274 392.982 290.703 394.829 290.61 396.731C290.517 398.633 290.905 400.528 291.737 402.24C292.137 403.32 292.893 404.231 293.881 404.823C294.869 405.416 296.029 405.654 297.17 405.498C302.056 405.263 306.775 403.65 310.782 400.847C318.326 396.174 324.874 390.06 330.052 382.854C331.062 381.302 332.215 379.848 333.496 378.51C335.341 377.16 337.002 375.576 338.437 373.797C339.065 372.416 339.412 370.924 339.458 369.408C339.504 367.891 339.247 366.381 338.703 364.965C337.943 362.751 337.454 360.452 337.248 358.12C337.248 357.178 337.535 356.071 336.366 356.071C335.198 356.071 334.029 356.85 332.82 356.789Z" fill="url(#paint28_linear)"/>
<path d="M599.424 248.631C599.137 248.391 598.774 248.259 598.399 248.259C598.025 248.259 597.662 248.391 597.374 248.631C597.104 248.893 596.9 249.215 596.779 249.572C596.658 249.928 596.623 250.308 596.677 250.68C596.791 251.42 597.079 252.122 597.518 252.729C598.092 253.59 599.383 255.516 600.531 255.639C601.679 255.762 602.13 255.065 601.823 254.082C601.515 253.098 600.388 252.709 600.08 251.746C599.773 250.783 600.265 249.348 599.424 248.631Z" fill="url(#paint29_linear)"/>
<path d="M657.932 323.017C657.748 323.485 657.452 323.9 657.071 324.226C654.734 326.522 652.396 328.796 650.1 331.091C650.244 332.772 643.212 313.919 641.9 303.079C643.95 303.55 646.82 309.759 648.296 311.501C650.49 314.083 652.888 316.48 655.246 318.899L656.046 319.698C656.427 320.084 656.784 320.495 657.112 320.927C657.475 321.429 657.707 322.014 657.788 322.628C657.788 322.628 657.932 322.935 657.932 323.017Z" fill="url(#paint30_linear)"/>
<path d="M593.684 285.517C593.514 286.881 592.859 288.139 591.839 289.062C587.124 293.918 580.666 295.394 576.874 301.664C575.012 305.085 573.632 308.747 572.774 312.546C570.847 318.897 569.475 325.404 568.674 331.993C567.874 338.616 568.843 345.333 571.482 351.46C573.368 355.559 576.218 359.206 576.546 363.592C576.652 364.48 576.51 365.381 576.136 366.194C575.541 367.094 574.702 367.805 573.717 368.243L572.794 368.653L571.339 368.879C567.151 355.093 564.544 340.875 563.569 326.501C563.016 317.976 563.118 308.96 567.362 301.541C571.053 295.71 576.429 291.136 582.778 288.426C586.251 286.929 589.926 285.949 593.684 285.517Z" fill="url(#paint31_linear)"/>
<path d="M594.73 318.734L602.561 334.185C603.94 336.722 605.072 339.384 605.943 342.136C607.399 347.321 606.968 352.956 608.957 357.936C607.993 355.538 601.269 352.587 599.342 350.497C594.914 345.702 598.932 347.095 599.588 342.177C599.978 339.308 596.698 334.534 595.939 331.583C594.852 327.392 594.444 323.054 594.73 318.734Z" fill="url(#paint32_linear)"/>
<path d="M748.235 121.58H636.693C630.512 121.58 625.5 126.589 625.5 132.769V171.581C625.5 177.76 630.512 182.77 636.693 182.77H748.235C754.416 182.77 759.428 177.76 759.428 171.581V132.769C759.428 126.589 754.416 121.58 748.235 121.58Z" fill="white"/>
<path d="M626.054 141.191V205.024L641.265 149.347L626.054 141.191Z" fill="white"/>
<path d="M178.884 232.647L290.425 232.647C296.607 232.647 301.618 227.638 301.618 221.458V182.646C301.618 176.467 296.607 171.457 290.425 171.457H178.884C172.702 171.457 167.691 176.467 167.691 182.646V221.458C167.691 227.638 172.702 232.647 178.884 232.647Z" fill="white"/>
<path d="M301.065 191.069V254.881L285.854 199.225L301.065 191.069Z" fill="white"/>
<path d="M665.18 150.828H672.826V158H665.18V150.828ZM689.191 150.828H696.838V158H689.191V150.828ZM713.203 150.828H720.85V158H713.203V150.828Z" fill="#70A288"/>
<path d="M210.781 192.82H216.09V198.832H221.891V192.82H227.223V210H221.891V203.051H216.09V210H210.781V192.82ZM244.25 204.961H234.688C234.773 205.727 234.98 206.297 235.309 206.672C235.77 207.211 236.371 207.48 237.113 207.48C237.582 207.48 238.027 207.363 238.449 207.129C238.707 206.98 238.984 206.719 239.281 206.344L243.98 206.777C243.262 208.027 242.395 208.926 241.379 209.473C240.363 210.012 238.906 210.281 237.008 210.281C235.359 210.281 234.062 210.051 233.117 209.59C232.172 209.121 231.387 208.383 230.762 207.375C230.145 206.359 229.836 205.168 229.836 203.801C229.836 201.855 230.457 200.281 231.699 199.078C232.949 197.875 234.672 197.273 236.867 197.273C238.648 197.273 240.055 197.543 241.086 198.082C242.117 198.621 242.902 199.402 243.441 200.426C243.98 201.449 244.25 202.781 244.25 204.422V204.961ZM239.398 202.676C239.305 201.754 239.055 201.094 238.648 200.695C238.25 200.297 237.723 200.098 237.066 200.098C236.309 200.098 235.703 200.398 235.25 201C234.961 201.375 234.777 201.934 234.699 202.676H239.398ZM245.059 197.555H250.098L252.664 205.84L255.043 197.555H259.742L254.809 210.855C254.246 212.371 253.672 213.395 253.086 213.926C252.258 214.676 250.996 215.051 249.301 215.051C248.613 215.051 247.551 214.957 246.113 214.77L245.738 211.441C246.426 211.66 247.191 211.77 248.035 211.77C248.598 211.77 249.051 211.641 249.395 211.383C249.746 211.125 250.043 210.664 250.285 210L245.059 197.555Z" fill="#70A288"/>
<defs>
<linearGradient id="paint0_linear" x1="647.333" y1="350.497" x2="695.631" y2="350.497" gradientUnits="userSpaceOnUse">
<stop stop-color="#E5C5D5"/>
<stop offset="0.42" stop-color="#EAD4D1"/>
<stop offset="1" stop-color="#F0E9CB"/>
</linearGradient>
<linearGradient id="paint1_linear" x1="685.812" y1="333.55" x2="656.272" y2="326.188" gradientUnits="userSpaceOnUse">
<stop stop-opacity="0"/>
<stop offset="0.99"/>
</linearGradient>
<linearGradient id="paint2_linear" x1="37367.5" y1="43001.3" x2="49341.2" y2="50923.2" gradientUnits="userSpaceOnUse">
<stop stop-opacity="0"/>
<stop offset="0.99"/>
</linearGradient>
<linearGradient id="paint3_linear" x1="28027.9" y1="16538.8" x2="21800.9" y2="19146.4" gradientUnits="userSpaceOnUse">
<stop stop-opacity="0"/>
<stop offset="0.99"/>
</linearGradient>
<linearGradient id="paint4_linear" x1="7825.48" y1="5873.88" x2="8061.04" y2="5873.88" gradientUnits="userSpaceOnUse">
<stop stop-color="#E5C5D5"/>
<stop offset="0.42" stop-color="#EAD4D1"/>
<stop offset="1" stop-color="#F0E9CB"/>
</linearGradient>
<linearGradient id="paint5_linear" x1="6601.08" y1="3958.12" x2="5866.71" y2="3893.53" gradientUnits="userSpaceOnUse">
<stop stop-color="#E5C5D5"/>
<stop offset="0.42" stop-color="#EAD4D1"/>
<stop offset="1" stop-color="#F0E9CB"/>
</linearGradient>
<linearGradient id="paint6_linear" x1="47478.1" y1="85337.5" x2="51140.2" y2="-7963.92" gradientUnits="userSpaceOnUse">
<stop stop-opacity="0"/>
<stop offset="0.99"/>
</linearGradient>
<linearGradient id="paint7_linear" x1="341.43" y1="363.756" x2="334.076" y2="149.551" gradientUnits="userSpaceOnUse">
<stop offset="0.02" stop-color="white" stop-opacity="0"/>
<stop offset="0.58" stop-color="white" stop-opacity="0.39"/>
<stop offset="0.68" stop-color="white" stop-opacity="0.68"/>
<stop offset="1" stop-color="white"/>
</linearGradient>
<linearGradient id="paint8_linear" x1="40339.8" y1="29814.1" x2="32254.3" y2="64463.3" gradientUnits="userSpaceOnUse">
<stop stop-opacity="0"/>
<stop offset="0.99"/>
</linearGradient>
<linearGradient id="paint9_linear" x1="54669.4" y1="35101.5" x2="55893.7" y2="21936.3" gradientUnits="userSpaceOnUse">
<stop stop-opacity="0"/>
<stop offset="0.99"/>
</linearGradient>
<linearGradient id="paint10_linear" x1="42518.1" y1="21941.2" x2="42770.7" y2="32305.4" gradientUnits="userSpaceOnUse">
<stop stop-opacity="0"/>
<stop offset="0.99"/>
</linearGradient>
<linearGradient id="paint11_linear" x1="5150.89" y1="13174.8" x2="5450.62" y2="13174.8" gradientUnits="userSpaceOnUse">
<stop stop-color="#E5C5D5"/>
<stop offset="0.42" stop-color="#EAD4D1"/>
<stop offset="1" stop-color="#F0E9CB"/>
</linearGradient>
<linearGradient id="paint12_linear" x1="5247.83" y1="15560.2" x2="5531.94" y2="15560.2" gradientUnits="userSpaceOnUse">
<stop stop-color="#E5C5D5"/>
<stop offset="0.42" stop-color="#EAD4D1"/>
<stop offset="1" stop-color="#F0E9CB"/>
</linearGradient>
<linearGradient id="paint13_linear" x1="18647.4" y1="14455.7" x2="18615.9" y2="11988.8" gradientUnits="userSpaceOnUse">
<stop stop-opacity="0"/>
<stop offset="0.99"/>
</linearGradient>
<linearGradient id="paint14_linear" x1="17660.3" y1="6532.58" x2="17491.2" y2="7887.75" gradientUnits="userSpaceOnUse">
<stop stop-color="#E5C5D5"/>
<stop offset="0.42" stop-color="#EAD4D1"/>
<stop offset="1" stop-color="#F0E9CB"/>
</linearGradient>
<linearGradient id="paint15_linear" x1="23564" y1="4985.59" x2="23777.1" y2="5718.09" gradientUnits="userSpaceOnUse">
<stop stop-opacity="0"/>
<stop offset="0.99"/>
</linearGradient>
<linearGradient id="paint16_linear" x1="32383.5" y1="9857.94" x2="37107" y2="9857.94" gradientUnits="userSpaceOnUse">
<stop stop-color="#E5C5D5"/>
<stop offset="0.42" stop-color="#EAD4D1"/>
<stop offset="1" stop-color="#F0E9CB"/>
</linearGradient>
<linearGradient id="paint17_linear" x1="21309.9" y1="23365.3" x2="21703.8" y2="19489.2" gradientUnits="userSpaceOnUse">
<stop stop-opacity="0"/>
<stop offset="0.99"/>
</linearGradient>
<linearGradient id="paint18_linear" x1="3682.95" y1="4862.84" x2="3819.68" y2="4862.84" gradientUnits="userSpaceOnUse">
<stop stop-color="#E5C5D5"/>
<stop offset="0.42" stop-color="#EAD4D1"/>
<stop offset="1" stop-color="#F0E9CB"/>
</linearGradient>
<linearGradient id="paint19_linear" x1="5545.99" y1="6977.15" x2="6031.88" y2="7586.55" gradientUnits="userSpaceOnUse">
<stop stop-opacity="0"/>
<stop offset="0.99"/>
</linearGradient>
<linearGradient id="paint20_linear" x1="10000.9" y1="7829.88" x2="11241.1" y2="7829.88" gradientUnits="userSpaceOnUse">
<stop stop-color="#E5C5D5"/>
<stop offset="0.42" stop-color="#EAD4D1"/>
<stop offset="1" stop-color="#F0E9CB"/>
</linearGradient>
<linearGradient id="paint21_linear" x1="15532.7" y1="6681.77" x2="15542" y2="7334.71" gradientUnits="userSpaceOnUse">
<stop stop-opacity="0"/>
<stop offset="0.99"/>
</linearGradient>
<linearGradient id="paint22_linear" x1="2122.73" y1="1977.66" x2="2155.05" y2="1977.66" gradientUnits="userSpaceOnUse">
<stop stop-color="#E5C5D5"/>
<stop offset="0.42" stop-color="#EAD4D1"/>
<stop offset="1" stop-color="#F0E9CB"/>
</linearGradient>
<linearGradient id="paint23_linear" x1="2015.56" y1="2384.5" x2="2055.52" y2="2384.5" gradientUnits="userSpaceOnUse">
<stop stop-color="#E5C5D5"/>
<stop offset="0.42" stop-color="#EAD4D1"/>
<stop offset="1" stop-color="#F0E9CB"/>
</linearGradient>
<linearGradient id="paint24_linear" x1="11155.1" y1="10654.7" x2="12538.4" y2="10654.7" gradientUnits="userSpaceOnUse">
<stop stop-color="#E5C5D5"/>
<stop offset="0.42" stop-color="#EAD4D1"/>
<stop offset="1" stop-color="#F0E9CB"/>
</linearGradient>
<linearGradient id="paint25_linear" x1="11786.5" y1="24869.9" x2="15271.7" y2="27244.9" gradientUnits="userSpaceOnUse">
<stop stop-opacity="0"/>
<stop offset="0.99"/>
</linearGradient>
<linearGradient id="paint26_linear" x1="63105.7" y1="98019.6" x2="114802" y2="97140.7" gradientUnits="userSpaceOnUse">
<stop stop-opacity="0"/>
<stop offset="0.99"/>
</linearGradient>
<linearGradient id="paint27_linear" x1="54627.8" y1="28025" x2="54978.1" y2="23100.5" gradientUnits="userSpaceOnUse">
<stop stop-opacity="0"/>
<stop offset="0.99"/>
</linearGradient>
<linearGradient id="paint28_linear" x1="9146.23" y1="10486.5" x2="10310.7" y2="10486.5" gradientUnits="userSpaceOnUse">
<stop stop-color="#E5C5D5"/>
<stop offset="0.42" stop-color="#EAD4D1"/>
<stop offset="1" stop-color="#F0E9CB"/>
</linearGradient>
<linearGradient id="paint29_linear" x1="2351.96" y1="1156.39" x2="2271.58" y2="1223.31" gradientUnits="userSpaceOnUse">
<stop stop-color="#E5C5D5"/>
<stop offset="0.42" stop-color="#EAD4D1"/>
<stop offset="1" stop-color="#F0E9CB"/>
</linearGradient>
<linearGradient id="paint30_linear" x1="6443.25" y1="4635.21" x2="6105.18" y2="4698.05" gradientUnits="userSpaceOnUse">
<stop stop-opacity="0"/>
<stop offset="0.99"/>
</linearGradient>
<linearGradient id="paint31_linear" x1="10602.4" y1="13916" x2="9566.82" y2="13799" gradientUnits="userSpaceOnUse">
<stop offset="0.02" stop-color="white" stop-opacity="0"/>
<stop offset="0.58" stop-color="white" stop-opacity="0.39"/>
<stop offset="0.68" stop-color="white" stop-opacity="0.68"/>
<stop offset="1" stop-color="white"/>
</linearGradient>
<linearGradient id="paint32_linear" x1="5532.1" y1="6627.02" x2="4765.29" y2="6765.14" gradientUnits="userSpaceOnUse">
<stop stop-opacity="0"/>
<stop offset="0.99"/>
</linearGradient>
</defs>
</svg>
