<svg width="1159" height="1024" viewBox="0 0 1159 1024" fill="none" xmlns="http://www.w3.org/2000/svg">
<path d="M135.085 386.105C-95.3967 387.875 182.306 9.95687 0 0H1260V1103H766.281C814.896 1032.75 870.405 894.901 703.52 905.522C536.636 916.143 480.57 754.694 473.397 672.642C456.661 576.392 365.567 384.335 135.085 386.105Z" fill="#FDB9A9"/>
<path opacity="0.18" d="M580.645 716.186C566.14 716.186 549.445 717.232 540.739 728.817L597.437 742.261C600.85 743.056 604.573 744.063 606.628 746.911C610.099 751.735 606.842 758.534 608.238 764.346C610.642 774.303 624.08 775.66 634.299 774.865L724.873 767.736C747.483 765.954 771.76 764.559 791.209 776.183C800.342 781.646 807.769 789.743 817.135 794.741C837.223 805.551 862.238 800.553 883.18 791.545C904.122 782.537 923.571 769.46 945.734 764.036C964.078 759.542 983.372 760.452 1001.83 756.481C1020.67 752.395 1038.07 743.36 1052.25 730.309C1051.12 731.355 1002.47 719.809 996.48 719.576C982.46 719.034 968.421 720.371 954.383 720.332C913.526 720.216 872.631 718.685 831.794 718.085C748.116 716.819 664.4 716.186 580.645 716.186Z" fill="#70A288"/>
<path d="M990.605 421.144C994.497 425.923 998.735 430.41 1003.29 434.569C1003.42 434.715 1003.6 434.816 1003.79 434.859C1004.01 434.877 1004.22 434.815 1004.39 434.685L1006.02 433.813C1012.41 433.98 1018.79 433.056 1024.87 431.082C1025.43 430.838 1026.03 430.712 1026.64 430.712C1027.25 430.712 1027.86 430.838 1028.42 431.082C1028.95 431.435 1029.35 431.942 1029.58 432.535C1029.86 433.304 1029.98 434.123 1029.93 434.94C1029.88 435.757 1029.66 436.555 1029.28 437.283C1028.91 438.011 1028.38 438.654 1027.75 439.17C1027.11 439.687 1026.38 440.066 1025.59 440.284C1026.23 441.695 1026.44 443.268 1026.18 444.798C1025.92 446.328 1025.21 447.745 1024.13 448.866C1022.44 450.512 1020.08 451.306 1018.31 452.74C1013.95 456.382 1013.91 462.93 1011.59 468.122C1011.16 469.23 1010.43 470.193 1009.47 470.892C1007.14 472.384 1004.08 470.892 1001.72 469.304C998.208 466.869 994.883 464.182 991.768 461.264C990.246 459.999 988.998 458.437 988.103 456.673C987.53 455.15 987.191 453.55 987.095 451.926L984.303 426.374C984.204 425.869 984.244 425.347 984.419 424.863C984.747 424.362 985.241 423.992 985.815 423.817C987.832 423.061 988.452 420.969 990.605 421.144Z" fill="url(#paint0_linear)"/>
<path d="M1004.78 430.423C1004.03 431.855 1003.18 433.24 1002.26 434.568C1001.45 435.514 1000.74 436.54 1000.14 437.629C999.487 439.351 999.222 441.197 999.369 443.034C999.277 443.796 999.353 444.568 999.59 445.298C999.828 446.027 1000.22 446.696 1000.75 447.257C1001.42 447.708 1002.2 447.975 1003.01 448.032C1006.32 448.536 1009.69 448.536 1013 448.032C1014.44 447.872 1015.83 447.403 1017.07 446.657C1018.33 445.707 1019.37 444.498 1020.12 443.112C1025.95 433.996 1031.14 424.48 1035.63 414.634C1035.76 414.374 1035.85 414.092 1035.88 413.801C1035.86 413.43 1035.75 413.071 1035.55 412.758C1035.35 412.445 1035.07 412.191 1034.74 412.019C1033.23 411.14 1031.54 410.635 1029.79 410.547C1026.58 410.155 1023.34 410.012 1020.1 410.12C1019.03 410.103 1017.96 410.287 1016.96 410.663C1015.31 411.399 1006.93 426.548 1004.78 430.423Z" fill="#70A288"/>
<path d="M1004.78 430.423C1004.03 431.855 1003.18 433.24 1002.26 434.568C1001.45 435.514 1000.74 436.54 1000.14 437.629C999.487 439.351 999.222 441.197 999.369 443.034C999.277 443.796 999.353 444.568 999.59 445.298C999.828 446.027 1000.22 446.696 1000.75 447.257C1001.42 447.708 1002.2 447.975 1003.01 448.032C1006.32 448.536 1009.69 448.536 1013 448.032C1014.44 447.872 1015.83 447.403 1017.07 446.657C1018.33 445.707 1019.37 444.498 1020.12 443.112C1025.95 433.996 1031.14 424.48 1035.63 414.634C1035.76 414.374 1035.85 414.092 1035.88 413.801C1035.86 413.43 1035.75 413.071 1035.55 412.758C1035.35 412.445 1035.07 412.191 1034.74 412.019C1033.23 411.14 1031.54 410.635 1029.79 410.547C1026.58 410.155 1023.34 410.012 1020.1 410.12C1019.03 410.103 1017.96 410.287 1016.96 410.663C1015.31 411.399 1006.93 426.548 1004.78 430.423Z" fill="url(#paint1_linear)"/>
<path d="M1007.28 432.244C1006.54 433.682 1005.71 435.068 1004.78 436.389C1003.97 437.342 1003.26 438.374 1002.67 439.47C1002 441.21 1001.75 443.078 1001.91 444.933C1001.81 445.694 1001.89 446.468 1002.12 447.198C1002.36 447.928 1002.76 448.597 1003.29 449.156C1003.96 449.601 1004.75 449.868 1005.55 449.931C1008.86 450.425 1012.22 450.425 1015.52 449.931C1016.97 449.774 1018.37 449.305 1019.61 448.555C1020.85 447.578 1021.88 446.359 1022.64 444.971C1028.47 435.856 1033.66 426.339 1038.15 416.494C1038.29 416.233 1038.38 415.952 1038.42 415.661C1038.4 415.29 1038.29 414.93 1038.09 414.618C1037.89 414.305 1037.61 414.05 1037.28 413.879C1035.77 413.004 1034.08 412.493 1032.33 412.387C1029.12 412.003 1025.88 411.867 1022.64 411.98C1021.57 411.955 1020.5 412.14 1019.5 412.523C1017.83 413.239 1009.43 428.369 1007.28 432.244Z" fill="#70A288"/>
<path d="M1033.61 605.066C1006.07 637.695 976.763 668.802 945.831 698.247C945.302 698.905 944.636 699.44 943.879 699.815C943.122 700.189 942.293 700.395 941.449 700.417C940.48 700.182 939.595 699.686 938.889 698.983C932.152 693.289 926.571 686.358 922.446 678.565C922.246 678.305 922.103 678.007 922.025 677.689C921.947 677.371 921.936 677.041 921.992 676.718C922.049 676.396 922.172 676.089 922.353 675.817C922.535 675.544 922.771 675.312 923.047 675.136C946.148 650.843 968.829 626.104 991.089 600.92C991.905 600.147 992.501 599.171 992.815 598.092C992.903 596.425 992.348 594.789 991.264 593.52C979.548 575.746 969.746 556.785 962.022 536.952C961.461 535.839 961.258 534.581 961.441 533.349C961.78 532.354 962.383 531.471 963.186 530.792C970.244 523.837 991.884 507.777 1000.03 519.885C1005.05 527.382 1007.98 537.32 1011.43 545.612C1015.23 554.652 1018.86 563.809 1022.33 573.082C1026.31 583.659 1030.07 594.32 1033.61 605.066Z" fill="#3E3E54"/>
<path d="M1033.61 605.066C1006.07 637.695 976.763 668.802 945.831 698.247C945.302 698.905 944.636 699.44 943.879 699.815C943.122 700.189 942.293 700.395 941.449 700.417C940.48 700.182 939.595 699.686 938.889 698.983C932.152 693.289 926.571 686.358 922.446 678.565C922.246 678.305 922.103 678.007 922.025 677.689C921.947 677.371 921.936 677.041 921.992 676.718C922.049 676.396 922.172 676.089 922.353 675.817C922.535 675.544 922.771 675.312 923.047 675.136C946.148 650.843 968.829 626.104 991.089 600.92C991.905 600.147 992.501 599.171 992.815 598.092C992.903 596.425 992.348 594.789 991.264 593.52C979.548 575.746 969.746 556.785 962.022 536.952C961.461 535.839 961.258 534.581 961.441 533.349C961.78 532.354 962.383 531.471 963.186 530.792C970.244 523.837 991.884 507.777 1000.03 519.885C1005.05 527.382 1007.98 537.32 1011.43 545.612C1015.23 554.652 1018.86 563.809 1022.33 573.082C1026.31 583.659 1030.07 594.32 1033.61 605.066Z" fill="url(#paint2_linear)"/>
<path d="M932.684 560.102C935.496 581.199 945.482 600.784 948.313 621.9C949.263 628.874 949.399 635.945 950.562 642.881C952.153 652.567 955.662 661.691 957.446 671.261C960.219 686.043 958.881 701.444 962.624 716.012C962.828 717.48 963.51 718.841 964.563 719.886C965.96 720.783 967.624 721.172 969.275 720.991L985.912 721.087C987.462 688.301 986.203 655.441 982.15 622.869C981.336 616.302 980.405 609.715 979.978 603.109C978.369 577.925 984.244 552.334 980.269 527.343C965.403 528.667 950.465 529.003 935.554 528.351C932.238 528.196 929.485 527.014 928.651 530.075C928.089 532.012 930.396 537.824 930.706 540.09C931.637 546.696 931.792 553.457 932.684 560.102Z" fill="#3E3E54"/>
<path d="M1001.62 521.163C1000.82 522.368 999.745 523.359 998.477 524.05C991.768 528.35 984.904 532.748 976.973 533.949C973.482 534.472 969.895 534.356 966.405 534.937C962.275 535.634 958.377 537.339 954.286 538.327C948.073 539.809 941.581 539.635 935.457 537.824C933.088 537.16 930.799 536.237 928.632 535.073C927.499 534.478 926.422 533.784 925.413 533C923.872 531.853 922.667 530.314 921.922 528.544C921.22 526.303 921.028 523.934 921.36 521.609V521.609C922.756 501.791 925.645 480.927 917.482 462.833L914.496 463.317C914.354 463.326 914.211 463.326 914.069 463.317V463.317H913.759L912.382 463.53C908.448 450.559 905.996 437.184 905.072 423.662C904.548 415.603 904.645 407.079 908.659 400.066C912.15 394.553 917.235 390.229 923.241 387.668C926.518 386.199 929.994 385.219 933.557 384.762C940.399 384.113 947.288 384.113 954.13 384.762L967.878 385.633C969.464 385.64 971.034 385.935 972.513 386.505C973.748 387.139 974.843 388.016 975.732 389.082C982.868 396.947 984.981 408.454 991.787 416.436C992.233 416.978 992.699 417.501 993.203 418.005C993.319 418.121 993.455 418.237 993.552 418.354C993.798 418.552 993.993 418.807 994.118 419.097C994.243 419.388 994.295 419.704 994.269 420.02C994.283 420.077 994.283 420.137 994.269 420.194V420.194C994.095 420.636 993.816 421.028 993.455 421.337C991.244 423.507 989.034 425.657 986.862 427.827C986.998 429.415 987.056 431.062 987.095 432.747C987.289 439.063 987.095 445.882 988.278 451.752C992.75 472.868 997.223 493.997 1001.7 515.138C1002.39 517.091 1002.37 519.229 1001.62 521.163V521.163Z" fill="#70A288"/>
<path d="M986.649 473.856C983.132 478.77 978.474 482.759 973.075 485.48C966.831 488.56 959.889 489.819 953.122 491.446C949.011 492.434 944.551 493.829 942.205 497.374C940.682 500.329 940.01 503.649 940.266 506.964C940.13 514.713 939.956 522.462 939.82 530.327C939.82 532.71 939.587 535.422 937.726 536.952C937.106 537.447 936.373 537.78 935.593 537.921C934.366 538.113 933.112 538.02 931.928 537.65C929.388 536.814 927.163 535.227 925.548 533.097C923.807 530.81 922.601 528.162 922.019 525.348C921.747 524.104 921.572 522.841 921.496 521.57C922.892 501.752 925.781 480.888 917.617 462.794C927.836 447.955 932.548 456.343 944.008 463.821C946.542 465.419 949.232 466.756 952.036 467.812C956.94 470.029 962.286 471.095 967.665 470.931C973.793 470.427 979.3 467.347 984.942 464.809C993.339 460.935 989.15 470.408 986.649 473.856Z" fill="url(#paint3_linear)"/>
<path d="M936.155 375.231C935.573 378.117 934.216 384.723 934.216 384.723C935.037 386.292 936.245 387.625 937.726 388.598C940.265 390.406 943.206 391.57 946.297 391.988C948.701 392.317 951.571 391.988 952.792 389.857C953.249 388.938 953.513 387.936 953.568 386.912L954.887 375.502C955.013 374.511 955.013 373.509 954.887 372.518C954.675 371.5 954.281 370.529 953.723 369.651C951.377 365.777 941.701 348.748 939.607 353.378C937.512 358.008 936.95 371.356 936.155 375.231Z" fill="url(#paint4_linear)"/>
<path d="M943.776 373.875C946.084 378.462 949.579 382.348 953.898 385.13C953.861 382.012 954.246 378.904 955.042 375.889C955.72 373.352 956.69 370.601 955.662 368.14C955.205 367.098 954.546 366.157 953.723 365.37C950.931 362.581 944.861 358.067 940.518 359.403C938.928 359.888 939.296 360.14 939.684 361.844C939.975 363.181 940.305 364.518 940.692 365.835C941.455 368.609 942.487 371.302 943.776 373.875Z" fill="url(#paint5_linear)"/>
<path d="M708.992 314.362C707.067 314.362 705.22 313.599 703.857 312.241C702.494 310.883 701.726 309.04 701.721 307.117V252.622C701.67 251.638 701.82 250.654 702.162 249.729C702.504 248.805 703.03 247.959 703.71 247.245C704.389 246.53 705.207 245.961 706.113 245.572C707.02 245.183 707.996 244.982 708.982 244.982C709.969 244.982 710.945 245.183 711.852 245.572C712.758 245.961 713.576 246.53 714.255 247.245C714.935 247.959 715.461 248.805 715.803 249.729C716.145 250.654 716.295 251.638 716.244 252.622V307.117C716.239 309.037 715.473 310.877 714.115 312.234C712.756 313.592 710.914 314.357 708.992 314.362Z" fill="#70A288"/>
<path d="M696.136 679.011C781.285 679.011 850.312 595.972 850.312 493.538C850.312 391.105 781.285 308.066 696.136 308.066C610.987 308.066 541.96 391.105 541.96 493.538C541.96 595.972 610.987 679.011 696.136 679.011Z" fill="#70A288"/>
<path d="M686.654 640.924C763.889 640.924 826.5 570.852 826.5 484.414C826.5 397.975 763.889 327.903 686.654 327.903C609.419 327.903 546.808 397.975 546.808 484.414C546.808 570.852 609.419 640.924 686.654 640.924Z" fill="url(#paint6_linear)"/>
<path d="M696.136 308.066C610.991 308.066 541.979 391.116 541.979 493.558C541.979 596 610.991 679.03 696.136 679.03C781.281 679.03 850.312 595.98 850.312 493.558C850.312 391.136 781.3 308.066 696.136 308.066ZM691.288 650.01C611.515 650.01 546.827 577.421 546.827 487.921C546.827 398.42 611.554 325.831 691.288 325.831C771.023 325.831 835.769 398.4 835.769 487.921C835.769 577.441 771.081 650.01 691.288 650.01Z" fill="url(#paint7_linear)"/>
<path d="M629.005 510.276C632.534 510.47 631.759 503.767 632.069 500.241C633.077 488.772 631.778 477.168 632.922 465.719C634.066 454.27 638.235 442.317 647.562 435.537C650.374 433.6 653.651 431.914 655.726 429.144C658.169 425.909 658.576 421.608 659.992 417.811C663.87 407.214 676.222 401.17 687.488 402.313C698.754 403.456 708.721 410.682 715.527 419.748C719.405 424.824 722.488 430.655 727.627 434.394C730.303 436.331 733.444 437.629 735.945 439.741C739.759 443.367 742.308 448.12 743.217 453.301C745.544 463.375 744.749 473.875 745.292 484.297C745.835 494.72 747.987 505.471 754.987 513.085C758.671 517.076 763.461 519.923 767.165 523.895C770.868 527.866 773.428 533.736 771.256 538.715C769.084 543.693 763.829 545.572 759.137 547.684C740.308 556.092 724.369 571.105 704.3 575.774C686.305 579.959 667.205 575.116 650.82 566.592C634.435 558.068 620.512 545.708 605.736 534.627C577.562 513.821 605.736 508.9 629.005 510.276Z" fill="url(#paint8_linear)"/>
<path d="M638.255 546.715C631.662 534.026 620.687 520.601 606.415 521.88C602.808 522.209 599.299 523.527 595.673 523.817C588.42 524.263 581.672 520.427 574.653 518.528C567.634 516.63 558.442 517.715 555.534 524.34C553.73 528.486 555.068 533.271 556.561 537.533C568.196 570.466 588.847 600.552 617.526 620.37C646.205 640.188 683.028 649.002 716.981 641.04C731.621 637.592 745.428 631.218 758.691 624.128C769.86 618.161 780.893 611.536 789.716 602.411C805.461 586.003 812.384 563.279 818.802 541.465C820.741 534.666 822.39 526.219 817.193 521.396C814.562 519.243 811.246 518.102 807.847 518.18C804.198 518.077 800.565 518.71 797.167 520.041C793.769 521.372 790.674 523.375 788.068 525.929C785.935 528.06 784.035 530.617 781.204 531.644C777.5 533 773.447 531.295 769.569 530.791C750.469 528.331 739.513 552.934 721.577 559.986C712.502 563.55 702.535 562.058 693.286 564.712C684.773 567.153 677.463 574.747 668.756 576.142C651.654 578.835 644.77 559.269 638.255 546.715Z" fill="white"/>
<path d="M638.255 546.715C631.662 534.026 620.687 520.601 606.415 521.88C602.808 522.209 599.299 523.527 595.673 523.817C588.42 524.263 581.672 520.427 574.653 518.528C567.634 516.63 558.442 517.715 555.534 524.34C553.73 528.486 555.068 533.271 556.561 537.533C568.196 570.466 588.847 600.552 617.526 620.37C646.205 640.188 683.028 649.002 716.981 641.04C731.621 637.592 745.428 631.218 758.691 624.128C769.86 618.161 780.893 611.536 789.716 602.411C805.461 586.003 812.384 563.279 818.802 541.465C820.741 534.666 822.39 526.219 817.193 521.396C814.562 519.243 811.246 518.102 807.847 518.18C804.198 518.077 800.565 518.71 797.167 520.041C793.769 521.372 790.674 523.375 788.068 525.929C785.935 528.06 784.035 530.617 781.204 531.644C777.5 533 773.447 531.295 769.569 530.791C750.469 528.331 739.513 552.934 721.577 559.986C712.502 563.55 702.535 562.058 693.286 564.712C684.773 567.153 677.463 574.747 668.756 576.142C651.654 578.835 644.77 559.269 638.255 546.715Z" fill="url(#paint9_linear)"/>
<path d="M635.482 547.51C632.689 547.084 630.285 550.009 630.188 552.837C630.355 555.679 631.315 558.417 632.961 560.741L644.014 579.881C631.681 581.818 620.88 572.52 610.448 565.681C606.842 563.337 601.335 561.497 598.814 564.984C597.03 567.444 598.271 571.086 600.54 573.082C603.011 574.86 605.755 576.227 608.664 577.13C618.476 581.218 626.116 589.451 635.676 593.984C641.958 596.929 648.861 598.208 655.435 600.435C661.679 602.547 668.291 606.247 669.842 612.718C670.986 617.503 668.97 622.404 668.989 627.363C669.008 632.323 672.983 638.076 677.657 636.546C680.643 635.558 681.981 632.187 682.95 629.204L690.047 607.313C697.804 612.446 697.047 625.697 705.385 629.688L707.422 615.72C707.512 614.373 707.868 613.056 708.469 611.846C709.185 610.862 710.097 610.037 711.149 609.424C712.2 608.81 713.367 608.421 714.577 608.281C719.366 607.313 724.408 607.7 729.042 606.17C735.732 603.942 740.444 598.111 745.66 593.364C751.71 587.843 758.768 583.562 765.167 578.428C777.269 568.649 786.723 555.994 792.663 541.621C788.145 540.11 783.278 543.287 780.564 547.2C777.849 551.113 776.453 555.84 773.719 559.773C771.406 563.003 768.28 565.565 764.656 567.198C761.033 568.831 757.041 569.477 753.087 569.071C752.265 566.742 752.168 564.219 752.809 561.833C753.449 559.447 754.796 557.311 756.674 555.704C757.686 555.025 758.622 554.239 759.466 553.36C762.782 549.37 758.225 542.899 753.048 542.434C747.871 541.969 743.159 545.069 738.757 547.859C729.956 553.443 720.622 558.141 710.892 561.884C704.028 564.538 696.757 566.747 689.407 566.166C678.161 565.294 668.582 558.417 657.548 556.654C653.282 555.995 647.368 558.281 643.742 556.46C640.116 554.639 640.135 548.207 635.482 547.51Z" fill="url(#paint10_linear)"/>
<path d="M676.823 630.947C675.316 633.128 674.274 635.593 673.759 638.192C673.673 641.016 674.415 643.804 675.892 646.213C677.017 648.344 678.762 650.668 681.147 650.513C682.039 650.391 682.893 650.073 683.648 649.583C685.135 648.807 686.485 647.793 687.643 646.581C690.358 643.52 690.823 639.103 690.707 634.957C690.59 630.812 690.028 626.685 691.153 622.772C692.568 617.832 696.563 613.764 697.183 608.669C694.449 607.913 689.097 605.201 686.344 605.685C683.59 606.17 684.075 609.792 683.687 611.943C682.578 618.643 680.252 625.084 676.823 630.947V630.947Z" fill="url(#paint11_linear)"/>
<path d="M694.333 615.643C694.998 617.13 695.53 618.673 695.923 620.254C696.214 621.8 696.369 623.368 696.388 624.942L697.338 645.225C697.249 647.311 697.717 649.384 698.696 651.23C700.46 653.942 704.125 654.737 707.325 654.349C708.357 654.288 709.349 653.924 710.175 653.303C710.751 652.762 711.202 652.1 711.494 651.366C712.265 649.822 712.795 648.169 713.064 646.465C713.704 641.99 711.901 637.534 709.884 633.485C707.867 629.436 705.579 625.368 705.133 620.854C704.765 617.29 705.618 613.667 705.25 610.102C704.939 607.061 703.737 604.078 703.97 601.036C701.738 601.311 699.524 601.712 697.338 602.237C695.593 602.663 692.142 603.07 690.745 604.174C689.117 605.763 693.46 613.512 694.333 615.643Z" fill="url(#paint12_linear)"/>
<path d="M662.299 402.545C657.637 396.805 655.298 389.526 655.745 382.146C656.243 374.773 659.325 367.811 664.452 362.483C668.33 358.492 673.546 355.412 679.014 355.955C681.07 353.126 685.161 352.313 688.574 351.557C694.491 350.147 700.678 350.348 706.491 352.138C712.324 353.953 717.299 357.821 720.491 363.026C723.164 368.174 724.617 373.868 724.738 379.667C724.825 385.444 725.474 391.198 726.677 396.85C728.209 402.429 731.486 407.834 736.682 410.411C737.518 410.702 738.261 411.21 738.835 411.883C739.843 413.355 738.835 415.37 737.439 416.571C736.001 417.839 734.295 418.767 732.448 419.283C730.601 419.8 728.661 419.893 726.774 419.555L728.441 423.216C728.535 423.323 728.601 423.452 728.633 423.59C728.665 423.729 728.663 423.873 728.627 424.011C728.591 424.148 728.521 424.275 728.424 424.38C728.328 424.484 728.207 424.563 728.073 424.611C726.564 425.533 724.838 426.039 723.07 426.077C721.302 426.114 719.555 425.682 718.009 424.824C718.142 426.273 718.07 427.734 717.796 429.163C713.809 428.711 709.98 427.345 706.607 425.173C706.607 427.517 704.048 429.183 701.721 429.047C699.398 428.677 697.182 427.812 695.225 426.509C694.647 426.127 693.978 425.906 693.286 425.87C691.87 425.87 690.92 427.226 689.834 428.117C688.794 428.866 687.598 429.37 686.336 429.592C685.073 429.813 683.776 429.746 682.543 429.396C680.08 428.68 677.758 427.546 675.679 426.044C676.028 427.439 674.554 428.776 673.119 428.776C671.678 428.639 670.335 427.985 669.338 426.935C666.794 424.801 665.028 421.886 664.316 418.644C663.493 419.754 662.433 420.667 661.213 421.317C660.6 421.629 659.901 421.734 659.223 421.615C658.544 421.496 657.923 421.161 657.452 420.659C656.385 419.283 657.122 417.327 657.898 415.777L660.593 410.333C661.97 407.524 664.297 404.986 662.299 402.545Z" fill="#3E3E54"/>
<path d="M737.594 416.552C736.161 417.822 734.459 418.751 732.615 419.268C730.771 419.785 728.833 419.876 726.948 419.535L728.635 423.197C728.714 423.322 728.767 423.463 728.79 423.609C728.813 423.756 728.807 423.905 728.771 424.049C728.661 424.288 728.478 424.485 728.247 424.611C726.734 425.521 725.008 426.018 723.241 426.052C721.475 426.086 719.731 425.656 718.184 424.805C718.307 426.254 718.235 427.714 717.97 429.144C713.983 428.691 710.154 427.326 706.782 425.153C706.879 427.497 704.242 429.144 701.876 429.028C699.553 428.683 697.338 427.815 695.399 426.49C694.817 426.117 694.15 425.898 693.46 425.851C692.045 425.851 691.095 427.226 690.009 428.117C688.969 428.866 687.773 429.371 686.51 429.592C685.247 429.813 683.951 429.746 682.718 429.396C680.256 428.676 677.935 427.543 675.854 426.044C676.203 427.439 674.748 428.757 673.294 428.776C671.852 428.639 670.509 427.985 669.513 426.936C666.958 424.802 665.19 421.877 664.491 418.625C663.674 419.745 662.613 420.666 661.388 421.318C660.759 421.648 660.038 421.763 659.337 421.644C658.636 421.525 657.994 421.179 657.51 420.659C656.463 419.283 657.219 417.307 657.975 415.777C658.887 413.956 659.759 412.154 660.671 410.333C662.067 407.524 664.355 404.987 662.358 402.584C659.785 399.461 657.902 395.83 656.831 391.93C655.976 388.776 655.629 385.506 655.803 382.243C656.309 374.872 659.391 367.913 664.51 362.58C668.388 358.706 673.585 355.529 679.072 356.071C681.108 353.243 685.219 352.429 688.632 351.674C694.549 350.265 700.736 350.466 706.549 352.255C712.382 354.069 717.357 357.938 720.549 363.142C723.216 368.292 724.662 373.986 724.776 379.783C724.925 385.128 725.496 390.452 726.483 395.707C726.483 396.153 726.677 396.56 726.793 396.966C728.344 402.546 731.621 407.97 736.818 410.527C737.647 410.842 738.391 411.346 738.99 411.999C739.94 413.336 738.835 415.351 737.594 416.552Z" fill="url(#paint13_linear)"/>
<path d="M978.039 360.876C977.047 366.1 974.593 370.936 970.962 374.824C967.083 378.505 961.266 380.442 956.399 378.524C953.04 376.904 950.165 374.433 948.061 371.356C945.855 368.787 943.973 365.956 942.457 362.929C940.37 361.663 938.465 360.118 936.795 358.338C935.739 357.391 934.891 356.236 934.303 354.946C933.716 353.656 933.402 352.258 933.382 350.841C933.615 348.032 936.601 345.416 939.2 346.501C941.759 342.84 942.205 338.094 944.241 334.103C945.722 331.362 947.855 329.027 950.452 327.304C953.049 325.581 956.03 324.523 959.133 324.223C962.244 323.991 965.369 324.385 968.324 325.384C971.279 326.382 974.002 327.964 976.333 330.035C978.004 331.275 979.272 332.98 979.978 334.936C980.967 338.442 980.366 343.208 979.978 346.811C979.682 351.541 979.034 356.242 978.039 360.876Z" fill="url(#paint14_linear)"/>
<path d="M984.167 320.6C977.787 321.259 972.028 317.094 966.715 313.413C961.402 309.732 954.984 306.187 948.895 308.24C947.228 308.812 945.715 309.76 944.474 311.011C943.666 312.005 942.695 312.856 941.604 313.529C940.787 313.847 939.943 314.093 939.083 314.265C934.022 315.776 932.122 322.014 931.695 327.206C931.434 330.552 931.434 333.914 931.695 337.26C931.986 340.902 932.898 345.009 936.058 346.85C937.784 347.838 940.111 348.09 941.177 349.775C941.623 350.472 941.972 351.499 942.806 351.538C943.011 351.535 943.212 351.49 943.399 351.407C943.585 351.324 943.753 351.203 943.892 351.054C947.15 348.206 945.502 342.917 946.297 338.655C946.372 338.171 946.55 337.708 946.82 337.299C947.353 336.722 948.019 336.283 948.759 336.02C951.26 334.703 953.187 332.509 954.169 329.86C957.556 333.599 961.87 336.379 966.676 337.919C968.279 338.312 969.805 338.967 971.194 339.856C972.304 340.875 973.329 341.983 974.258 343.169C978.485 347.508 986.261 346.888 990.643 342.704C992.712 340.479 994.176 337.762 994.895 334.812C995.615 331.861 995.566 328.776 994.754 325.85C993.919 326.317 992.977 326.561 992.02 326.561C991.063 326.561 990.122 326.317 989.286 325.85C989.79 326.141 994.231 319.263 993.164 318.101C992.098 316.939 985.796 320.426 984.167 320.6Z" fill="#3E3E54"/>
<path d="M984.167 320.6C977.787 321.259 972.028 317.094 966.715 313.413C961.402 309.732 954.984 306.187 948.895 308.24C947.228 308.812 945.715 309.76 944.474 311.011C943.666 312.005 942.695 312.856 941.604 313.529C940.787 313.847 939.943 314.093 939.083 314.265C934.022 315.776 932.122 322.014 931.695 327.206C931.434 330.552 931.434 333.914 931.695 337.26C931.986 340.902 932.898 345.009 936.058 346.85C937.784 347.838 940.111 348.09 941.177 349.775C941.623 350.472 941.972 351.499 942.806 351.538C943.011 351.535 943.212 351.49 943.399 351.407C943.585 351.324 943.753 351.203 943.892 351.054C947.15 348.206 945.502 342.917 946.297 338.655C946.372 338.171 946.55 337.708 946.82 337.299C947.353 336.722 948.019 336.283 948.759 336.02C951.26 334.703 953.187 332.509 954.169 329.86C957.556 333.599 961.87 336.379 966.676 337.919C968.279 338.312 969.805 338.967 971.194 339.856C972.304 340.875 973.329 341.983 974.258 343.169C978.485 347.508 986.261 346.888 990.643 342.704C992.712 340.479 994.176 337.762 994.895 334.812C995.615 331.861 995.566 328.776 994.754 325.85C993.919 326.317 992.977 326.561 992.02 326.561C991.063 326.561 990.122 326.317 989.286 325.85C989.79 326.141 994.231 319.263 993.164 318.101C992.098 316.939 985.796 320.426 984.167 320.6Z" fill="url(#paint15_linear)"/>
<path d="M935.147 442.163C941.031 448.125 947.253 453.746 953.781 458.997C954.376 459.535 955.076 459.944 955.837 460.198C956.879 460.357 957.944 460.23 958.92 459.83C961.15 459.113 963.36 458.377 965.571 457.622C971.843 455.686 977.956 453.27 983.856 450.396C989.674 447.354 994.541 437.513 1000.09 437.629C1000.2 438.753 999.272 440.283 999.388 441.407C999.388 441.772 999.511 442.127 999.737 442.414C999.954 442.593 1000.22 442.707 1000.49 442.744C1004.37 443.538 1008.11 441.155 1011.78 439.605C1012.34 439.305 1012.98 439.177 1013.62 439.237C1015.17 439.528 1015.56 441.756 1014.75 443.112C1013.77 444.352 1012.67 445.482 1011.45 446.483C1008.58 449.582 1008.7 454.387 1006.7 458.106C1005.86 459.671 1004.65 461.013 1003.19 462.023C1001.73 463.034 1000.05 463.683 998.283 463.918C997.282 463.975 996.284 464.091 995.297 464.267C993.665 464.816 992.157 465.678 990.856 466.804C983.384 471.945 975.39 476.283 967.006 479.745C963.693 481.427 960.2 482.727 956.593 483.62C953.786 483.986 951.002 484.509 948.255 485.189C945.773 486.002 943.407 487.475 940.789 487.32C937.047 487.068 934.449 483.6 932.374 480.462C928.496 474.495 923.415 467.579 922.155 460.373C921.554 456.963 924.714 454.561 926.809 452.159L935.147 442.163Z" fill="url(#paint16_linear)"/>
<path d="M966.56 734.687C966.531 735.458 966.734 736.22 967.142 736.876C967.494 737.271 967.941 737.571 968.441 737.748C970.347 738.418 972.354 738.752 974.374 738.736C987.625 739.356 1000.88 739.459 1014.13 739.046C1009.44 733.662 1003.05 730.057 996.015 728.836C992.738 728.275 989.364 728.236 986.125 727.422C985.82 727.362 985.534 727.229 985.292 727.035C985.076 726.74 984.949 726.391 984.923 726.027L984.109 720.836C984.116 720.556 984.027 720.283 983.857 720.061C983.597 719.862 983.27 719.771 982.945 719.809L973.851 719.654C972.067 719.654 969.546 719.189 968.034 720.313C966.521 721.436 966.638 723.993 966.56 725.776C966.457 728.772 966.457 731.742 966.56 734.687Z" fill="#3E3E54"/>
<path d="M911.005 690.324C910.369 690.82 909.897 691.494 909.648 692.261C909.545 693.016 909.666 693.784 909.997 694.47C913.429 703.497 920.216 710.762 926.867 717.717C932.219 723.373 937.687 729.127 944.532 732.847C947.79 723.277 944.358 712.35 937.9 704.563C937.067 703.764 936.533 702.704 936.388 701.56C936.613 700.515 936.979 699.505 937.474 698.557C937.618 697.505 937.518 696.434 937.181 695.426C936.845 694.418 936.282 693.501 935.535 692.746C932.479 688.381 928.655 684.607 924.249 681.606C921.069 679.669 920.371 681.161 917.889 683.544L911.005 690.324Z" fill="#3E3E54"/>
<path d="M657.355 440.845C654.823 441.815 652.59 443.432 650.878 445.533C649.61 447.663 648.847 450.056 648.648 452.526C644.867 478.098 646.884 504.115 648.9 529.881L651.731 565.913C652.255 572.733 652.895 579.862 656.598 585.615C659.283 589.477 662.897 592.602 667.108 594.701C681.089 602.14 697.862 600.978 713.646 599.641C717.131 599.547 720.573 598.859 723.826 597.607C728.584 595.116 732.277 590.986 734.22 585.983C737.981 577.673 738.621 568.316 738.835 559.172C739.397 534.859 737.186 510.489 738.699 486.196C739.552 472.635 741.2 457.738 733.192 446.792C728.051 440.362 720.784 435.973 712.696 434.413C695.128 430.481 673.604 433.348 657.355 440.845Z" fill="white"/>
<path d="M644.15 555.918C644.034 560.996 644.535 566.07 645.643 571.028C646.455 574.879 647.806 578.596 649.657 582.07C653.94 589.247 660.438 594.841 668.175 598.014C675.88 601.143 684.05 602.976 692.355 603.438C700.94 604.391 709.627 603.734 717.97 601.501C726.369 599.221 733.598 593.859 738.214 586.487C743.236 577.809 743.101 567.115 742.597 557.177C742.034 546.444 741.142 535.499 736.973 525.58C736.567 524.438 735.903 523.404 735.034 522.558C733.981 521.815 732.711 521.442 731.423 521.498C730.135 521.554 728.902 522.036 727.918 522.868C725.984 524.578 724.454 526.695 723.438 529.067L710.447 554.523C709.795 556.044 708.838 557.415 707.635 558.552C704.998 560.722 701.042 560.257 697.94 558.978C692.41 556.481 687.62 552.597 684.036 547.704C680.294 542.977 677.211 537.766 673.624 532.922C672.281 530.978 670.646 529.253 668.776 527.808C665.252 525.644 661.18 524.535 657.044 524.612C652.798 524.437 651.809 525.077 650.161 529.067C646.536 537.577 644.499 546.676 644.15 555.918Z" fill="#3E3E54"/>
<path d="M644.15 555.918C644.034 560.996 644.535 566.07 645.643 571.028C646.455 574.879 647.806 578.596 649.657 582.07C653.94 589.247 660.438 594.841 668.175 598.014C675.88 601.143 684.05 602.976 692.355 603.438C700.94 604.391 709.627 603.734 717.97 601.501C726.369 599.221 733.598 593.859 738.214 586.487C743.236 577.809 743.101 567.115 742.597 557.177C742.034 546.444 741.142 535.499 736.973 525.58C736.567 524.438 735.903 523.404 735.034 522.558C733.981 521.815 732.711 521.442 731.423 521.498C730.135 521.554 728.902 522.036 727.918 522.868C725.984 524.578 724.454 526.695 723.438 529.067L710.447 554.523C709.795 556.044 708.838 557.415 707.635 558.552C704.998 560.722 701.042 560.257 697.94 558.978C692.41 556.481 687.62 552.597 684.036 547.704C680.294 542.977 677.211 537.766 673.624 532.922C672.281 530.978 670.646 529.253 668.776 527.808C665.252 525.644 661.18 524.535 657.044 524.612C652.798 524.437 651.809 525.077 650.161 529.067C646.536 537.577 644.499 546.676 644.15 555.918Z" fill="url(#paint17_linear)"/>
<path d="M651.789 444.623C648.609 446.056 646.651 449.272 645.08 452.372C639.151 464.243 636.001 477.307 635.87 490.574C635.87 493.557 636.102 496.87 638.235 498.962C641.086 501.771 645.74 501.093 649.579 500.008C655.028 498.478 661.058 495.727 662.474 490.322C664.161 483.832 658.072 475.037 656.249 468.858C655.551 466.533 649.773 445.533 651.789 444.623Z" fill="white"/>
<path d="M684.095 436.622C684.199 438.057 684.56 439.461 685.161 440.768C686.227 442.614 687.974 443.97 690.028 444.545C690.565 444.722 691.131 444.794 691.696 444.758C692.161 444.707 692.613 444.576 693.034 444.371C694.385 443.747 695.563 442.803 696.466 441.62C697.819 439.609 698.646 437.291 698.87 434.878C699.384 430.799 699.54 426.683 699.336 422.577C699.397 422.031 699.333 421.479 699.148 420.962C698.963 420.445 698.663 419.977 698.269 419.594C697.802 419.344 697.286 419.199 696.757 419.167C694.786 418.951 692.805 418.841 690.823 418.838C688.808 418.702 686.785 418.799 684.793 419.129C683.862 419.342 683.978 419.729 683.881 420.659C683.784 421.589 683.726 422.596 683.668 423.623C683.552 425.676 683.532 427.73 683.668 429.764C683.804 431.798 683.823 434.355 684.095 436.622Z" fill="url(#paint18_linear)"/>
<path d="M683.959 436.021C684.096 435.203 684.406 434.424 684.87 433.735C685.192 433.4 685.577 433.132 686.003 432.946C686.429 432.759 686.887 432.659 687.352 432.651C692.305 431.953 697.33 431.953 702.283 432.651C702.937 432.665 703.58 432.826 704.163 433.121C704.747 433.416 705.258 433.838 705.657 434.355C706.279 435.616 706.541 437.024 706.413 438.424C706.506 446.044 706.014 453.66 704.939 461.206C704.377 464.77 703.427 468.722 700.887 470.407C698.347 472.093 695.884 471.086 693.421 470.253L686.77 467.947C686.085 467.761 685.431 467.474 684.831 467.095C681.826 464.886 681.515 458.397 681.593 454.483C681.718 448.263 682.512 442.073 683.959 436.021V436.021Z" fill="#70A288"/>
<path d="M683.959 436.021C684.096 435.203 684.406 434.424 684.87 433.735C685.192 433.4 685.577 433.132 686.003 432.946C686.429 432.759 686.887 432.659 687.352 432.651C692.305 431.953 697.33 431.953 702.283 432.651C702.937 432.665 703.58 432.826 704.163 433.121C704.747 433.416 705.258 433.838 705.657 434.355C706.279 435.616 706.541 437.024 706.413 438.424C706.506 446.044 706.014 453.66 704.939 461.206C704.377 464.77 703.427 468.722 700.887 470.407C698.347 472.093 695.884 471.086 693.421 470.253L686.77 467.947C686.085 467.761 685.431 467.474 684.831 467.095C681.826 464.886 681.515 458.397 681.593 454.483C681.718 448.263 682.512 442.073 683.959 436.021V436.021Z" fill="url(#paint19_linear)"/>
<path d="M685.704 438.482C685.833 437.661 686.145 436.88 686.615 436.196C687.264 435.528 688.147 435.139 689.078 435.111C694.037 434.414 699.069 434.414 704.028 435.111C704.681 435.132 705.321 435.296 705.904 435.59C706.487 435.885 706.998 436.303 707.402 436.816C708.019 438.078 708.28 439.484 708.159 440.884C708.245 448.505 707.746 456.121 706.665 463.666C706.123 467.25 705.153 471.182 702.613 472.868C700.363 474.379 697.61 473.565 695.147 472.713L688.516 470.408C687.829 470.226 687.175 469.938 686.577 469.555C683.571 467.347 683.261 460.857 683.338 456.944C683.454 450.722 684.248 444.532 685.704 438.482Z" fill="#70A288"/>
<path d="M670.56 407.292C672.048 409.822 673.86 412.147 675.95 414.208C678.782 417.23 681.768 420.33 685.82 421.415C689.641 422.161 693.597 421.777 697.203 420.31C698.827 419.803 700.404 419.155 701.915 418.373C705.723 416.028 708.967 412.873 711.416 409.133C712.474 407.802 713.36 406.344 714.053 404.793C714.754 402.969 715.166 401.048 715.275 399.098C715.498 396.235 715.498 393.359 715.275 390.496C715.279 386.804 714.119 383.205 711.959 380.209C710.557 378.623 708.831 377.355 706.898 376.49C699.239 372.79 690.319 373.061 681.845 373.913C677.967 374.32 673.856 374.96 671.083 377.672C667.457 381.217 667.496 385.556 667.903 390.128C668.524 396.134 667.574 401.732 670.56 407.292Z" fill="url(#paint20_linear)"/>
<path d="M726.425 395.591C723.458 395.591 720.355 395.378 719.948 395.979C719.383 396.582 718.62 396.963 717.798 397.052C716.976 397.14 716.15 396.932 715.469 396.463C715.469 394.952 715.469 393.441 715.469 391.91C714.979 392.058 714.462 392.089 713.958 392.002C713.455 391.915 712.978 391.713 712.566 391.41C712.154 391.108 711.818 390.714 711.585 390.259C711.352 389.805 711.228 389.302 711.222 388.791C707.974 390.324 704.346 390.869 700.79 390.361C697.673 390.238 694.582 389.75 691.579 388.908C687.555 387.454 683.951 385.032 681.086 381.856C678.222 378.68 676.185 374.847 675.155 370.697C674.942 374.185 671.626 377.226 670.327 380.384C669.688 382.406 669.228 384.48 668.95 386.583C668.597 388.598 667.802 390.509 666.623 392.182C665.442 393.874 663.648 395.042 661.621 395.436C660.496 393.699 658.77 392.437 656.773 391.891C655.918 388.737 655.571 385.468 655.745 382.205C656.251 374.833 659.332 367.874 664.452 362.542C668.33 358.667 673.526 355.49 679.014 356.033C681.05 353.204 685.161 352.39 688.574 351.635C694.491 350.226 700.678 350.427 706.491 352.216C712.324 354.03 717.299 357.899 720.491 363.103C723.158 368.254 724.604 373.947 724.718 379.744C724.871 385.063 725.441 390.362 726.425 395.591V395.591Z" fill="#3E3E54"/>
<path d="M726.425 395.591C723.458 395.591 720.355 395.378 719.948 395.979C719.383 396.582 718.62 396.963 717.798 397.052C716.976 397.14 716.15 396.932 715.469 396.463C715.469 394.952 715.469 393.441 715.469 391.91C714.979 392.058 714.462 392.089 713.958 392.002C713.455 391.915 712.978 391.713 712.566 391.41C712.154 391.108 711.818 390.714 711.585 390.259C711.352 389.805 711.228 389.302 711.222 388.791C707.974 390.324 704.346 390.869 700.79 390.361C697.673 390.238 694.582 389.75 691.579 388.908C687.555 387.454 683.951 385.032 681.086 381.856C678.222 378.68 676.185 374.847 675.155 370.697C674.942 374.185 671.626 377.226 670.327 380.384C669.688 382.406 669.228 384.48 668.95 386.583C668.597 388.598 667.802 390.509 666.623 392.182C665.442 393.874 663.648 395.042 661.621 395.436C660.496 393.699 658.77 392.437 656.773 391.891C655.918 388.737 655.571 385.468 655.745 382.205C656.251 374.833 659.332 367.874 664.452 362.542C668.33 358.667 673.526 355.49 679.014 356.033C681.05 353.204 685.161 352.39 688.574 351.635C694.491 350.226 700.678 350.427 706.491 352.216C712.324 354.03 717.299 357.899 720.491 363.103C723.158 368.254 724.604 373.947 724.718 379.744C724.871 385.063 725.441 390.362 726.425 395.591V395.591Z" fill="url(#paint21_linear)"/>
<path d="M718.474 404.289C719.736 403.951 720.841 403.184 721.596 402.119C722.172 401.142 722.448 400.017 722.391 398.884C722.434 398.112 722.299 397.34 721.997 396.628C721.694 395.916 721.232 395.283 720.646 394.777C720.201 394.461 719.686 394.259 719.145 394.188C718.604 394.117 718.053 394.18 717.542 394.371C717.031 394.563 716.575 394.876 716.213 395.285C715.852 395.693 715.596 396.184 715.469 396.714C715.323 397.428 715.284 398.159 715.352 398.884C715.344 400.579 715.149 402.268 714.771 403.921C714.557 405.006 714.771 404.909 715.876 404.812C716.76 404.744 717.633 404.568 718.474 404.289V404.289Z" fill="url(#paint22_linear)"/>
<path d="M663.521 402.74C662.129 401.229 661.354 399.252 661.349 397.199C661.288 396.159 661.488 395.12 661.931 394.177C662.298 393.391 662.875 392.72 663.598 392.24C664.264 391.762 665.079 391.537 665.896 391.604C666.713 391.671 667.48 392.027 668.058 392.608C668.358 393.01 668.581 393.463 668.718 393.945C669.124 395.411 669.359 396.919 669.416 398.439C669.532 399.853 669.648 401.267 669.745 402.662C669.842 403.766 670.269 404.599 669.183 404.851C666.992 405.432 665.188 403.573 663.521 402.74Z" fill="url(#paint23_linear)"/>
<path d="M742.752 486.118C745.165 488.31 747.139 490.939 748.569 493.867C749.971 496.799 750.186 500.157 749.17 503.244C748.643 504.769 747.688 506.111 746.42 507.111C745.152 508.11 743.623 508.724 742.015 508.881C739.758 508.842 737.556 508.178 735.655 506.963C730.902 504.529 726.579 501.336 722.857 497.509C722.276 497.004 721.875 496.324 721.713 495.572C721.715 495.085 721.815 494.603 722.004 494.154C722.194 493.706 722.47 493.299 722.818 492.957C725.668 489.315 728.752 483.271 732.513 480.636C734.724 478.989 734.666 479.396 737.186 481.275C739.156 482.753 741.016 484.372 742.752 486.118V486.118Z" fill="white"/>
<path d="M696.505 468.373C695.514 467.581 694.645 466.648 693.926 465.603C691.657 461.98 693.228 456.982 691.289 453.147C690.571 451.732 689.349 450.279 689.757 448.749C690.28 446.812 693.034 446.444 695.07 446.812C698.349 447.412 701.478 448.649 704.28 450.454C705.899 449.209 707.119 447.519 707.79 445.591C710.214 448.187 709.012 452.372 709.729 455.859C710.447 459.346 713.607 462.271 716.361 464.751L736.644 482.496C737.598 482.973 738.411 483.692 739.001 484.58C739.591 485.469 739.937 486.497 740.006 487.561C740.075 488.625 739.863 489.689 739.392 490.646C738.921 491.603 738.208 492.42 737.322 493.015C735.112 495.63 732.707 499.214 729.333 497.606C725.455 495.805 721.577 490.71 718.377 487.92L696.505 468.373Z" fill="url(#paint24_linear)"/>
<path d="M646.864 526.704L688.07 605.647L703.796 600.668C703.796 600.668 683.377 499.931 671.917 494.352C669.105 492.996 662.474 495.204 655.241 499.176C650.524 501.764 647.008 506.092 645.442 511.236C643.877 516.38 644.387 521.931 646.864 526.704V526.704Z" fill="#3E3E54"/>
<path d="M646.864 526.704L688.07 605.647L703.796 600.668C703.796 600.668 683.377 499.931 671.917 494.352C669.105 492.996 662.474 495.204 655.241 499.176C650.524 501.764 647.008 506.092 645.442 511.236C643.877 516.38 644.387 521.931 646.864 526.704V526.704Z" fill="url(#paint25_linear)"/>
<path d="M721.79 495.708C721.79 495.708 711.668 496.522 710.156 502.973C708.643 509.424 682.504 604.833 682.504 604.833L701.895 609.676C701.895 609.676 739.029 529.029 740.677 517.735C742.325 506.44 721.79 495.708 721.79 495.708Z" fill="#3E3E54"/>
<path d="M721.79 495.708C721.79 495.708 711.668 496.522 710.156 502.973C708.643 509.424 682.504 604.833 682.504 604.833L701.895 609.676C701.895 609.676 739.029 529.029 740.677 517.735C742.325 506.44 721.79 495.708 721.79 495.708Z" fill="#3E3E54"/>
<path d="M667.36 653.323C667.272 656.417 668.392 659.425 670.482 661.711C671.907 662.948 673.662 663.742 675.533 663.997C677.403 664.252 679.307 663.955 681.011 663.144C684.42 661.437 687.028 658.47 688.283 654.872C689.499 651.302 690.058 647.541 689.931 643.772C690.015 642.586 689.816 641.398 689.349 640.304C688.684 639.23 687.73 638.364 686.596 637.805C682.97 635.713 675.524 633.04 672.305 636.294C668.737 639.897 667.205 648.499 667.36 653.323Z" fill="#70A288"/>
<path d="M700.208 659.27C701.483 661.56 703.351 663.466 705.616 664.789C707.881 666.111 710.46 666.801 713.084 666.786C715.044 666.737 716.922 665.988 718.377 664.675C719.327 663.525 720.018 662.184 720.403 660.743C720.788 659.302 720.858 657.795 720.607 656.325C720.487 654.237 720.049 652.179 719.308 650.223C717.577 646.509 715.148 643.161 712.153 640.362C712.012 640.156 711.797 640.01 711.552 639.956C711.309 639.974 711.078 640.069 710.893 640.227C708.889 641.839 706.694 643.199 704.358 644.276C700.305 645.864 697.358 642.997 697.397 648.499C697.376 652.273 698.345 655.987 700.208 659.27V659.27Z" fill="#70A288"/>
<path d="M667.36 653.323C667.272 656.417 668.392 659.425 670.482 661.711C671.907 662.948 673.662 663.742 675.533 663.997C677.403 664.252 679.307 663.955 681.011 663.144C684.42 661.437 687.028 658.47 688.283 654.872C689.499 651.302 690.058 647.541 689.931 643.772C690.015 642.586 689.816 641.398 689.349 640.304C688.684 639.23 687.73 638.364 686.596 637.805C682.97 635.713 675.524 633.04 672.305 636.294C668.737 639.897 667.205 648.499 667.36 653.323Z" fill="#3E3E54"/>
<path d="M700.208 659.27C701.483 661.56 703.351 663.466 705.616 664.789C707.881 666.111 710.46 666.801 713.084 666.786C715.044 666.737 716.922 665.988 718.377 664.675C719.327 663.525 720.018 662.184 720.403 660.743C720.788 659.302 720.858 657.795 720.607 656.325C720.487 654.237 720.049 652.179 719.308 650.223C717.577 646.509 715.148 643.161 712.153 640.362C712.012 640.156 711.797 640.01 711.552 639.956C711.309 639.974 711.078 640.069 710.893 640.227C708.889 641.839 706.694 643.199 704.358 644.276C700.305 645.864 697.358 642.997 697.397 648.499C697.376 652.273 698.345 655.987 700.208 659.27V659.27Z" fill="#3E3E54"/>
<path d="M881.085 625.91C854.365 673.625 815.719 704.078 785.043 725.311C783.831 726.154 782.39 726.607 780.913 726.609C780.086 726.612 779.265 726.467 778.489 726.182C777.226 725.739 776.11 724.955 775.266 723.917C774.421 722.88 773.88 721.628 773.704 720.303C773.527 718.977 773.721 717.628 774.265 716.406C774.808 715.183 775.679 714.135 776.782 713.377C806.159 693.055 843.157 663.919 868.404 618.839C897.063 567.657 905.944 503.612 894.795 428.485C884.498 359.054 845.077 308.899 777.616 279.434C745.855 265.817 711.98 257.776 677.482 255.664C675.554 255.615 673.724 254.803 672.394 253.406C671.065 252.009 670.346 250.142 670.395 248.215C670.444 246.288 671.257 244.46 672.655 243.132C674.053 241.804 675.922 241.085 677.851 241.134C714.109 243.195 749.726 251.587 783.084 265.931C854.675 297.063 898.285 352.545 909.26 426.354C920.778 504.736 911.316 571.9 881.085 625.91Z" fill="#70A288"/>
<path d="M874.105 627.073C847.52 674.535 809.088 704.95 778.47 726.163C777.206 725.72 776.091 724.936 775.246 723.898C774.402 722.86 773.861 721.609 773.684 720.283C773.508 718.957 773.702 717.609 774.245 716.386C774.789 715.164 775.66 714.116 776.763 713.358C806.14 693.036 843.138 663.9 868.385 618.82C897.044 567.638 905.925 503.592 894.775 428.466C884.479 359.035 845.057 308.88 777.597 279.414C745.84 265.806 711.972 257.772 677.482 255.663C675.951 255.614 674.475 255.082 673.264 254.144C672.053 253.206 671.169 251.91 670.739 250.441C670.309 248.972 670.355 247.405 670.869 245.963C671.384 244.521 672.341 243.279 673.604 242.413C708.935 244.801 743.605 253.153 776.143 267.113C847.733 298.108 891.363 353.708 902.338 427.536C913.817 505.898 904.354 573.043 874.105 627.073Z" fill="url(#paint26_linear)"/>
<path d="M870.537 793.192L870.44 793.308C869.758 794.133 868.902 794.797 867.934 795.253C866.965 795.709 865.907 795.944 864.836 795.943C863.142 795.954 861.499 795.364 860.202 794.277L779.536 727.655L667.283 771.262C665.483 771.958 663.48 771.912 661.714 771.132C659.949 770.353 658.565 768.905 657.869 767.107C657.172 765.308 657.218 763.307 657.998 761.543C658.778 759.78 660.228 758.398 662.028 757.701L782.251 711.014L869.509 783.06C870.976 784.277 871.905 786.021 872.097 787.916C872.29 789.811 871.729 791.705 870.537 793.192Z" fill="#70A288"/>
<path d="M870.537 793.192L870.44 793.308C869.758 794.133 868.902 794.797 867.934 795.253C866.965 795.708 865.907 795.944 864.836 795.943C863.142 795.954 861.499 795.364 860.202 794.276L779.536 727.655L667.283 771.262C665.837 771.83 664.246 771.916 662.747 771.507C661.248 771.099 659.921 770.218 658.964 768.995C659.764 767.975 660.822 767.186 662.028 766.709L782.192 720.061L869.451 792.126C869.854 792.437 870.219 792.794 870.537 793.192V793.192Z" fill="url(#paint27_linear)"/>
<path d="M686.809 452.294C686.086 452.301 685.377 452.096 684.77 451.703C684.163 451.31 683.686 450.748 683.396 450.086C683.164 449.427 683.222 448.691 682.97 448.013C682.718 447.335 682.02 446.734 681.36 447.025C681.108 447.147 680.899 447.343 680.759 447.587C679.286 449.737 679.77 452.623 679.169 455.181C678.635 457.036 677.76 458.777 676.59 460.314C670.709 468.326 663.236 475.04 654.64 480.035C652.248 481.221 650.139 482.906 648.454 484.975C647.512 486.51 646.972 488.256 646.884 490.054C646.796 491.852 647.162 493.643 647.95 495.262C648.328 496.283 649.043 497.144 649.978 497.704C650.912 498.264 652.009 498.489 653.089 498.342C657.71 498.12 662.174 496.595 665.964 493.945C673.1 489.527 679.294 483.747 684.192 476.936C685.147 475.468 686.238 474.093 687.449 472.829C689.194 471.553 690.765 470.055 692.122 468.373C692.717 467.068 693.045 465.657 693.088 464.224C693.132 462.79 692.889 461.363 692.374 460.024C691.655 457.931 691.193 455.758 690.998 453.553C690.998 452.662 691.269 451.616 690.164 451.616C689.059 451.616 687.953 452.352 686.809 452.294Z" fill="url(#paint28_linear)"/>
<path d="M938.986 350.046C938.714 349.819 938.371 349.695 938.017 349.695C937.662 349.695 937.319 349.819 937.047 350.046C936.792 350.294 936.599 350.599 936.484 350.935C936.369 351.272 936.336 351.631 936.388 351.983C936.496 352.683 936.768 353.347 937.183 353.921C937.726 354.734 938.947 356.555 940.033 356.672C941.119 356.788 941.546 356.129 941.255 355.199C940.964 354.269 939.897 353.901 939.607 352.991C939.316 352.08 939.781 350.724 938.986 350.046Z" fill="url(#paint29_linear)"/>
<path d="M994.328 420.368C994.154 420.81 993.874 421.203 993.513 421.511C991.303 423.681 989.092 425.831 986.92 428.001C987.056 429.59 980.405 411.767 979.164 401.519C981.103 401.965 983.818 407.834 985.214 409.481C987.289 411.922 989.558 414.189 991.788 416.475L992.544 417.23C992.905 417.595 993.242 417.983 993.552 418.392V418.392C993.896 418.867 994.116 419.42 994.192 420C994.192 420 994.328 420.291 994.328 420.368Z" fill="url(#paint30_linear)"/>
<path d="M933.557 384.917C933.396 386.207 932.777 387.396 931.812 388.268C927.352 392.86 921.244 394.255 917.656 400.183C915.895 403.416 914.59 406.878 913.778 410.469C911.956 416.474 910.658 422.625 909.9 428.854C909.144 435.115 910.061 441.465 912.557 447.258C914.341 451.132 917.036 454.58 917.346 458.726C917.446 459.566 917.312 460.418 916.958 461.186C916.396 462.037 915.602 462.709 914.67 463.124L913.798 463.511L912.421 463.724C908.459 450.692 905.994 437.251 905.072 423.662C904.548 415.603 904.645 407.079 908.659 400.066C912.15 394.553 917.235 390.229 923.241 387.668C926.527 386.252 930.002 385.325 933.557 384.917V384.917Z" fill="url(#paint31_linear)"/>
<path d="M934.546 416.32L941.953 430.927C943.257 433.324 944.329 435.841 945.153 438.443C946.529 443.344 946.122 448.672 948.003 453.379C947.092 451.113 940.731 448.323 938.909 446.347C934.72 441.814 938.521 443.131 939.141 438.482C939.51 435.77 936.407 431.256 935.69 428.466C934.662 424.505 934.275 420.404 934.546 416.32V416.32Z" fill="url(#paint32_linear)"/>
<path d="M1079.74 229.937H974.239C968.391 229.937 963.651 234.673 963.651 240.514V277.206C963.651 283.048 968.391 287.783 974.239 287.783H1079.74C1085.59 287.783 1090.33 283.048 1090.33 277.206V240.514C1090.33 234.673 1085.59 229.937 1079.74 229.937Z" fill="white"/>
<path d="M964.175 248.477V308.822L978.563 256.187L964.175 248.477Z" fill="white"/>
<path d="M541.204 334.936H646.709C652.556 334.936 657.296 330.2 657.296 324.358V287.667C657.296 281.825 652.556 277.089 646.709 277.089H541.204C535.357 277.089 530.617 281.825 530.617 287.667V324.358C530.617 330.2 535.357 334.936 541.204 334.936Z" fill="white"/>
<path d="M656.773 295.629V355.955L642.385 303.34L656.773 295.629Z" fill="white"/>
<path d="M1001.3 259.381H1008.95V266.553H1001.3V259.381ZM1025.31 259.381H1032.96V266.553H1025.31V259.381ZM1049.32 259.381H1056.97V266.553H1049.32V259.381Z" fill="#70A288"/>
<path d="M571.471 297.767H576.78V303.779H582.581V297.767H587.913V314.947H582.581V307.998H576.78V314.947H571.471V297.767ZM604.94 309.908H595.377C595.463 310.673 595.67 311.244 595.999 311.619C596.459 312.158 597.061 312.427 597.803 312.427C598.272 312.427 598.717 312.31 599.139 312.076C599.397 311.927 599.674 311.666 599.971 311.291L604.67 311.724C603.952 312.974 603.084 313.873 602.069 314.419C601.053 314.958 599.596 315.228 597.698 315.228C596.049 315.228 594.752 314.998 593.807 314.537C592.862 314.068 592.077 313.33 591.452 312.322C590.834 311.306 590.526 310.115 590.526 308.748C590.526 306.802 591.147 305.228 592.389 304.025C593.639 302.822 595.362 302.22 597.557 302.22C599.338 302.22 600.745 302.49 601.776 303.029C602.807 303.568 603.592 304.349 604.131 305.373C604.67 306.396 604.94 307.728 604.94 309.369V309.908ZM600.088 307.623C599.995 306.701 599.745 306.041 599.338 305.642C598.94 305.244 598.413 305.044 597.756 305.044C596.999 305.044 596.393 305.345 595.94 305.947C595.651 306.322 595.467 306.88 595.389 307.623H600.088ZM605.749 302.501H610.788L613.354 310.787L615.733 302.501H620.432L615.499 315.802C614.936 317.318 614.362 318.341 613.776 318.873C612.948 319.623 611.686 319.998 609.991 319.998C609.303 319.998 608.241 319.904 606.803 319.716L606.428 316.388C607.116 316.607 607.881 316.716 608.725 316.716C609.288 316.716 609.741 316.587 610.084 316.33C610.436 316.072 610.733 315.611 610.975 314.947L605.749 302.501Z" fill="#70A288"/>
<defs>
<linearGradient id="paint0_linear" x1="984.303" y1="446.347" x2="1029.99" y2="446.347" gradientUnits="userSpaceOnUse">
<stop stop-color="#E5C5D5"/>
<stop offset="0.42" stop-color="#EAD4D1"/>
<stop offset="1" stop-color="#F0E9CB"/>
</linearGradient>
<linearGradient id="paint1_linear" x1="1020.7" y1="430.326" x2="992.76" y2="423.359" gradientUnits="userSpaceOnUse">
<stop stop-opacity="0"/>
<stop offset="0.99"/>
</linearGradient>
<linearGradient id="paint2_linear" x1="35717.3" y1="40766.8" x2="47039.2" y2="48261.6" gradientUnits="userSpaceOnUse">
<stop stop-opacity="0"/>
<stop offset="0.99"/>
</linearGradient>
<linearGradient id="paint3_linear" x1="26883.2" y1="15750.1" x2="20994.2" y2="18217.6" gradientUnits="userSpaceOnUse">
<stop stop-opacity="0"/>
<stop offset="0.99"/>
</linearGradient>
<linearGradient id="paint4_linear" x1="7774" y1="5667.95" x2="7996.81" y2="5667.95" gradientUnits="userSpaceOnUse">
<stop stop-color="#E5C5D5"/>
<stop offset="0.42" stop-color="#EAD4D1"/>
<stop offset="1" stop-color="#F0E9CB"/>
</linearGradient>
<linearGradient id="paint5_linear" x1="6615.89" y1="3856.86" x2="5921.26" y2="3795.73" gradientUnits="userSpaceOnUse">
<stop stop-color="#E5C5D5"/>
<stop offset="0.42" stop-color="#EAD4D1"/>
<stop offset="1" stop-color="#F0E9CB"/>
</linearGradient>
<linearGradient id="paint6_linear" x1="45280.8" y1="80789.8" x2="48740.9" y2="-7413.94" gradientUnits="userSpaceOnUse">
<stop stop-opacity="0"/>
<stop offset="0.99"/>
</linearGradient>
<linearGradient id="paint7_linear" x1="694.953" y1="458.881" x2="688.005" y2="256.38" gradientUnits="userSpaceOnUse">
<stop offset="0.02" stop-color="white" stop-opacity="0"/>
<stop offset="0.58" stop-color="white" stop-opacity="0.39"/>
<stop offset="0.68" stop-color="white" stop-opacity="0.68"/>
<stop offset="1" stop-color="white"/>
</linearGradient>
<linearGradient id="paint8_linear" x1="38528.8" y1="28300.1" x2="30888.9" y2="61058" gradientUnits="userSpaceOnUse">
<stop stop-opacity="0"/>
<stop offset="0.99"/>
</linearGradient>
<linearGradient id="paint9_linear" x1="52082.9" y1="33298.6" x2="53239.8" y2="20852.7" gradientUnits="userSpaceOnUse">
<stop stop-opacity="0"/>
<stop offset="0.99"/>
</linearGradient>
<linearGradient id="paint10_linear" x1="40589.2" y1="20857.4" x2="40827.9" y2="30655.3" gradientUnits="userSpaceOnUse">
<stop stop-opacity="0"/>
<stop offset="0.99"/>
</linearGradient>
<linearGradient id="paint11_linear" x1="5244.15" y1="12570" x2="5527.66" y2="12570" gradientUnits="userSpaceOnUse">
<stop stop-color="#E5C5D5"/>
<stop offset="0.42" stop-color="#EAD4D1"/>
<stop offset="1" stop-color="#F0E9CB"/>
</linearGradient>
<linearGradient id="paint12_linear" x1="5335.85" y1="14825" x2="5604.57" y2="14825" gradientUnits="userSpaceOnUse">
<stop stop-color="#E5C5D5"/>
<stop offset="0.42" stop-color="#EAD4D1"/>
<stop offset="1" stop-color="#F0E9CB"/>
</linearGradient>
<linearGradient id="paint13_linear" x1="18010.3" y1="13780.8" x2="17980.5" y2="11448.7" gradientUnits="userSpaceOnUse">
<stop stop-opacity="0"/>
<stop offset="0.99"/>
</linearGradient>
<linearGradient id="paint14_linear" x1="17076.6" y1="6290.65" x2="16916.8" y2="7571.81" gradientUnits="userSpaceOnUse">
<stop stop-color="#E5C5D5"/>
<stop offset="0.42" stop-color="#EAD4D1"/>
<stop offset="1" stop-color="#F0E9CB"/>
</linearGradient>
<linearGradient id="paint15_linear" x1="22660.8" y1="4828.18" x2="22862.1" y2="5520.73" gradientUnits="userSpaceOnUse">
<stop stop-opacity="0"/>
<stop offset="0.99"/>
</linearGradient>
<linearGradient id="paint16_linear" x1="31003.1" y1="9434.32" x2="35471" y2="9434.32" gradientUnits="userSpaceOnUse">
<stop stop-color="#E5C5D5"/>
<stop offset="0.42" stop-color="#EAD4D1"/>
<stop offset="1" stop-color="#F0E9CB"/>
</linearGradient>
<linearGradient id="paint17_linear" x1="20528.8" y1="22203.7" x2="20900.9" y2="18539.3" gradientUnits="userSpaceOnUse">
<stop stop-opacity="0"/>
<stop offset="0.99"/>
</linearGradient>
<linearGradient id="paint18_linear" x1="3855.65" y1="4712.15" x2="3984.98" y2="4712.15" gradientUnits="userSpaceOnUse">
<stop stop-color="#E5C5D5"/>
<stop offset="0.42" stop-color="#EAD4D1"/>
<stop offset="1" stop-color="#F0E9CB"/>
</linearGradient>
<linearGradient id="paint19_linear" x1="5617.87" y1="6710.93" x2="6077.15" y2="7287.28" gradientUnits="userSpaceOnUse">
<stop stop-opacity="0"/>
<stop offset="0.99"/>
</linearGradient>
<linearGradient id="paint20_linear" x1="9831.68" y1="7517.07" x2="11004.7" y2="7517.07" gradientUnits="userSpaceOnUse">
<stop stop-color="#E5C5D5"/>
<stop offset="0.42" stop-color="#EAD4D1"/>
<stop offset="1" stop-color="#F0E9CB"/>
</linearGradient>
<linearGradient id="paint21_linear" x1="15064.1" y1="6431.69" x2="15072.9" y2="7048.95" gradientUnits="userSpaceOnUse">
<stop stop-opacity="0"/>
<stop offset="0.99"/>
</linearGradient>
<linearGradient id="paint22_linear" x1="2379.85" y1="1984.61" x2="2410.43" y2="1984.61" gradientUnits="userSpaceOnUse">
<stop stop-color="#E5C5D5"/>
<stop offset="0.42" stop-color="#EAD4D1"/>
<stop offset="1" stop-color="#F0E9CB"/>
</linearGradient>
<linearGradient id="paint23_linear" x1="2278.48" y1="2369.21" x2="2316.28" y2="2369.21" gradientUnits="userSpaceOnUse">
<stop stop-color="#E5C5D5"/>
<stop offset="0.42" stop-color="#EAD4D1"/>
<stop offset="1" stop-color="#F0E9CB"/>
</linearGradient>
<linearGradient id="paint24_linear" x1="10923.4" y1="10187.5" x2="12231.9" y2="10187.5" gradientUnits="userSpaceOnUse">
<stop stop-color="#E5C5D5"/>
<stop offset="0.42" stop-color="#EAD4D1"/>
<stop offset="1" stop-color="#F0E9CB"/>
</linearGradient>
<linearGradient id="paint25_linear" x1="11520.7" y1="23626" x2="14816.1" y2="25873" gradientUnits="userSpaceOnUse">
<stop stop-opacity="0"/>
<stop offset="0.99"/>
</linearGradient>
<linearGradient id="paint26_linear" x1="60062.7" y1="92779" x2="108961" y2="91947.3" gradientUnits="userSpaceOnUse">
<stop stop-opacity="0"/>
<stop offset="0.99"/>
</linearGradient>
<linearGradient id="paint27_linear" x1="52043.6" y1="26608.8" x2="52374.6" y2="21953.3" gradientUnits="userSpaceOnUse">
<stop stop-opacity="0"/>
<stop offset="0.99"/>
</linearGradient>
<linearGradient id="paint28_linear" x1="9023.28" y1="10028.6" x2="10124.8" y2="10028.6" gradientUnits="userSpaceOnUse">
<stop stop-color="#E5C5D5"/>
<stop offset="0.42" stop-color="#EAD4D1"/>
<stop offset="1" stop-color="#F0E9CB"/>
</linearGradient>
<linearGradient id="paint29_linear" x1="2596.68" y1="1208.21" x2="2520.68" y2="1271.51" gradientUnits="userSpaceOnUse">
<stop stop-color="#E5C5D5"/>
<stop offset="0.42" stop-color="#EAD4D1"/>
<stop offset="1" stop-color="#F0E9CB"/>
</linearGradient>
<linearGradient id="paint30_linear" x1="6466.58" y1="4496.95" x2="6146.82" y2="4556.42" gradientUnits="userSpaceOnUse">
<stop stop-opacity="0"/>
<stop offset="0.99"/>
</linearGradient>
<linearGradient id="paint31_linear" x1="10400.7" y1="13270.7" x2="9421.12" y2="13160" gradientUnits="userSpaceOnUse">
<stop offset="0.02" stop-color="white" stop-opacity="0"/>
<stop offset="0.58" stop-color="white" stop-opacity="0.39"/>
<stop offset="0.68" stop-color="white" stop-opacity="0.68"/>
<stop offset="1" stop-color="white"/>
</linearGradient>
<linearGradient id="paint32_linear" x1="5604.72" y1="6379.94" x2="4879.44" y2="6510.66" gradientUnits="userSpaceOnUse">
<stop stop-opacity="0"/>
<stop offset="0.99"/>
</linearGradient>
</defs>
</svg>
